<svg version="1.1" xmlns="http://www.w3.org/2000/svg" xmlns:xlink="http://www.w3.org/1999/xlink" width="1156" height="657"><defs><clipPath id="MIVJOybTkOPc"><path fill="none" stroke="none" d=" M 0 0 L 1156 0 L 1156 657 L 0 657 L 0 0 Z"/></clipPath></defs><g transform="scale(1,1)" clip-path="url(#MIVJOybTkOPc)"><g><rect fill="rgb(255,255,255)" stroke="none" x="0" y="0" width="1156" height="657" fill-opacity="1"/><path fill="none" stroke="rgb(192,192,192)" paint-order="fill stroke markers" d=" M 10.5 0.5 L 10.5 657.5 M 10.5 0.5 L 10.5 657.5 M 59.5 0.5 L 59.5 657.5 M 107.5 0.5 L 107.5 657.5 M 156.5 0.5 L 156.5 657.5 M 204.5 0.5 L 204.5 657.5 M 252.5 0.5 L 252.5 657.5 M 301.5 0.5 L 301.5 657.5 M 349.5 0.5 L 349.5 657.5 M 398.5 0.5 L 398.5 657.5 M 446.5 0.5 L 446.5 657.5 M 494.5 0.5 L 494.5 657.5 M 591.5 0.5 L 591.5 657.5 M 639.5 0.5 L 639.5 657.5 M 688.5 0.5 L 688.5 657.5 M 736.5 0.5 L 736.5 657.5 M 785.5 0.5 L 785.5 657.5 M 833.5 0.5 L 833.5 657.5 M 881.5 0.5 L 881.5 657.5 M 930.5 0.5 L 930.5 657.5 M 978.5 0.5 L 978.5 657.5 M 1026.5 0.5 L 1026.5 657.5 M 1075.5 0.5 L 1075.5 657.5 M 1123.5 0.5 L 1123.5 657.5" stroke-opacity="1" stroke-linecap="round" stroke-linejoin="round" stroke-miterlimit="10"/><path fill="none" stroke="rgb(192,192,192)" paint-order="fill stroke markers" d=" M 1.5 0.5 L 1.5 657.5 M 20.5 0.5 L 20.5 657.5 M 30.5 0.5 L 30.5 657.5 M 39.5 0.5 L 39.5 657.5 M 49.5 0.5 L 49.5 657.5 M 69.5 0.5 L 69.5 657.5 M 78.5 0.5 L 78.5 657.5 M 88.5 0.5 L 88.5 657.5 M 98.5 0.5 L 98.5 657.5 M 117.5 0.5 L 117.5 657.5 M 127.5 0.5 L 127.5 657.5 M 136.5 0.5 L 136.5 657.5 M 146.5 0.5 L 146.5 657.5 M 165.5 0.5 L 165.5 657.5 M 175.5 0.5 L 175.5 657.5 M 185.5 0.5 L 185.5 657.5 M 194.5 0.5 L 194.5 657.5 M 214.5 0.5 L 214.5 657.5 M 223.5 0.5 L 223.5 657.5 M 233.5 0.5 L 233.5 657.5 M 243.5 0.5 L 243.5 657.5 M 262.5 0.5 L 262.5 657.5 M 272.5 0.5 L 272.5 657.5 M 281.5 0.5 L 281.5 657.5 M 291.5 0.5 L 291.5 657.5 M 310.5 0.5 L 310.5 657.5 M 320.5 0.5 L 320.5 657.5 M 330.5 0.5 L 330.5 657.5 M 339.5 0.5 L 339.5 657.5 M 359.5 0.5 L 359.5 657.5 M 368.5 0.5 L 368.5 657.5 M 378.5 0.5 L 378.5 657.5 M 388.5 0.5 L 388.5 657.5 M 407.5 0.5 L 407.5 657.5 M 417.5 0.5 L 417.5 657.5 M 427.5 0.5 L 427.5 657.5 M 436.5 0.5 L 436.5 657.5 M 456.5 0.5 L 456.5 657.5 M 465.5 0.5 L 465.5 657.5 M 475.5 0.5 L 475.5 657.5 M 485.5 0.5 L 485.5 657.5 M 504.5 0.5 L 504.5 657.5 M 514.5 0.5 L 514.5 657.5 M 523.5 0.5 L 523.5 657.5 M 533.5 0.5 L 533.5 657.5 M 552.5 0.5 L 552.5 657.5 M 562.5 0.5 L 562.5 657.5 M 572.5 0.5 L 572.5 657.5 M 581.5 0.5 L 581.5 657.5 M 601.5 0.5 L 601.5 657.5 M 610.5 0.5 L 610.5 657.5 M 620.5 0.5 L 620.5 657.5 M 630.5 0.5 L 630.5 657.5 M 649.5 0.5 L 649.5 657.5 M 659.5 0.5 L 659.5 657.5 M 668.5 0.5 L 668.5 657.5 M 678.5 0.5 L 678.5 657.5 M 697.5 0.5 L 697.5 657.5 M 707.5 0.5 L 707.5 657.5 M 717.5 0.5 L 717.5 657.5 M 727.5 0.5 L 727.5 657.5 M 746.5 0.5 L 746.5 657.5 M 756.5 0.5 L 756.5 657.5 M 765.5 0.5 L 765.5 657.5 M 775.5 0.5 L 775.5 657.5 M 794.5 0.5 L 794.5 657.5 M 804.5 0.5 L 804.5 657.5 M 814.5 0.5 L 814.5 657.5 M 823.5 0.5 L 823.5 657.5 M 843.5 0.5 L 843.5 657.5 M 852.5 0.5 L 852.5 657.5 M 862.5 0.5 L 862.5 657.5 M 872.5 0.5 L 872.5 657.5 M 891.5 0.5 L 891.5 657.5 M 901.5 0.5 L 901.5 657.5 M 910.5 0.5 L 910.5 657.5 M 920.5 0.5 L 920.5 657.5 M 939.5 0.5 L 939.5 657.5 M 949.5 0.5 L 949.5 657.5 M 959.5 0.5 L 959.5 657.5 M 968.5 0.5 L 968.5 657.5 M 988.5 0.5 L 988.5 657.5 M 997.5 0.5 L 997.5 657.5 M 1007.5 0.5 L 1007.5 657.5 M 1017.5 0.5 L 1017.5 657.5 M 1036.5 0.5 L 1036.5 657.5 M 1046.5 0.5 L 1046.5 657.5 M 1056.5 0.5 L 1056.5 657.5 M 1065.5 0.5 L 1065.5 657.5 M 1085.5 0.5 L 1085.5 657.5 M 1094.5 0.5 L 1094.5 657.5 M 1104.5 0.5 L 1104.5 657.5 M 1114.5 0.5 L 1114.5 657.5 M 1133.5 0.5 L 1133.5 657.5 M 1143.5 0.5 L 1143.5 657.5 M 1152.5 0.5 L 1152.5 657.5" stroke-opacity="0.23529411764705882" stroke-linecap="round" stroke-linejoin="round" stroke-miterlimit="10"/><path fill="none" stroke="rgb(192,192,192)" paint-order="fill stroke markers" d=" M 0.5 8.5 L 1156.5 8.5 M 0.5 8.5 L 1156.5 8.5 M 0.5 56.5 L 1156.5 56.5 M 0.5 104.5 L 1156.5 104.5 M 0.5 153.5 L 1156.5 153.5 M 0.5 201.5 L 1156.5 201.5 M 0.5 298.5 L 1156.5 298.5 M 0.5 346.5 L 1156.5 346.5 M 0.5 395.5 L 1156.5 395.5 M 0.5 443.5 L 1156.5 443.5 M 0.5 491.5 L 1156.5 491.5 M 0.5 540.5 L 1156.5 540.5 M 0.5 588.5 L 1156.5 588.5 M 0.5 637.5 L 1156.5 637.5" stroke-opacity="1" stroke-linecap="round" stroke-linejoin="round" stroke-miterlimit="10"/><path fill="none" stroke="rgb(192,192,192)" paint-order="fill stroke markers" d=" M 0.5 8.5 L 1156.5 8.5 M 0.5 17.5 L 1156.5 17.5 M 0.5 27.5 L 1156.5 27.5 M 0.5 37.5 L 1156.5 37.5 M 0.5 46.5 L 1156.5 46.5 M 0.5 66.5 L 1156.5 66.5 M 0.5 75.5 L 1156.5 75.5 M 0.5 85.5 L 1156.5 85.5 M 0.5 95.5 L 1156.5 95.5 M 0.5 114.5 L 1156.5 114.5 M 0.5 124.5 L 1156.5 124.5 M 0.5 133.5 L 1156.5 133.5 M 0.5 143.5 L 1156.5 143.5 M 0.5 162.5 L 1156.5 162.5 M 0.5 172.5 L 1156.5 172.5 M 0.5 182.5 L 1156.5 182.5 M 0.5 191.5 L 1156.5 191.5 M 0.5 211.5 L 1156.5 211.5 M 0.5 220.5 L 1156.5 220.5 M 0.5 230.5 L 1156.5 230.5 M 0.5 240.5 L 1156.5 240.5 M 0.5 259.5 L 1156.5 259.5 M 0.5 269.5 L 1156.5 269.5 M 0.5 279.5 L 1156.5 279.5 M 0.5 288.5 L 1156.5 288.5 M 0.5 308.5 L 1156.5 308.5 M 0.5 317.5 L 1156.5 317.5 M 0.5 327.5 L 1156.5 327.5 M 0.5 337.5 L 1156.5 337.5 M 0.5 356.5 L 1156.5 356.5 M 0.5 366.5 L 1156.5 366.5 M 0.5 375.5 L 1156.5 375.5 M 0.5 385.5 L 1156.5 385.5 M 0.5 404.5 L 1156.5 404.5 M 0.5 414.5 L 1156.5 414.5 M 0.5 424.5 L 1156.5 424.5 M 0.5 433.5 L 1156.5 433.5 M 0.5 453.5 L 1156.5 453.5 M 0.5 462.5 L 1156.5 462.5 M 0.5 472.5 L 1156.5 472.5 M 0.5 482.5 L 1156.5 482.5 M 0.5 501.5 L 1156.5 501.5 M 0.5 511.5 L 1156.5 511.5 M 0.5 520.5 L 1156.5 520.5 M 0.5 530.5 L 1156.5 530.5 M 0.5 549.5 L 1156.5 549.5 M 0.5 559.5 L 1156.5 559.5 M 0.5 569.5 L 1156.5 569.5 M 0.5 578.5 L 1156.5 578.5 M 0.5 598.5 L 1156.5 598.5 M 0.5 608.5 L 1156.5 608.5 M 0.5 617.5 L 1156.5 617.5 M 0.5 627.5 L 1156.5 627.5 M 0.5 646.5 L 1156.5 646.5 M 0.5 656.5 L 1156.5 656.5" stroke-opacity="0.23529411764705882" stroke-linecap="round" stroke-linejoin="round" stroke-miterlimit="10"/><path fill="none" stroke="rgb(0,0,0)" paint-order="fill stroke markers" d=" M 543.5 2.5 L 543.5 657.5" stroke-opacity="1" stroke-miterlimit="10"/><path fill="none" stroke="rgb(0,0,0)" paint-order="fill stroke markers" d=" M 543.5 1.5 L 539.5 5.5" stroke-opacity="1" stroke-miterlimit="10"/><path fill="none" stroke="rgb(0,0,0)" paint-order="fill stroke markers" d=" M 543.5 1.5 L 547.5 5.5" stroke-opacity="1" stroke-miterlimit="10"/><path fill="none" stroke="rgb(0,0,0)" paint-order="fill stroke markers" d=" M 0.5 249.5 L 1154.5 249.5" stroke-opacity="1" stroke-miterlimit="10"/><path fill="none" stroke="rgb(0,0,0)" paint-order="fill stroke markers" d=" M 1155.5 249.5 L 1151.5 245.5" stroke-opacity="1" stroke-miterlimit="10"/><path fill="none" stroke="rgb(0,0,0)" paint-order="fill stroke markers" d=" M 1155.5 249.5 L 1151.5 253.5" stroke-opacity="1" stroke-miterlimit="10"/><text fill="rgb(0,0,0)" stroke="none" font-family="geogebra-sans-serif, sans-serif" font-size="12px" font-style="normal" font-weight="normal" text-decoration="normal" x="2" y="265" text-anchor="start" dominant-baseline="alphabetic" fill-opacity="1">–22</text><text fill="none" stroke="rgb(255,255,255)" font-family="geogebra-sans-serif, sans-serif" font-size="12px" font-style="normal" font-weight="normal" text-decoration="normal" x="2" y="265" text-anchor="start" dominant-baseline="alphabetic" stroke-opacity="1" stroke-linejoin="bevel" stroke-miterlimit="10" stroke-width="3">–22</text><text fill="rgb(0,0,0)" stroke="none" font-family="geogebra-sans-serif, sans-serif" font-size="12px" font-style="normal" font-weight="normal" text-decoration="normal" x="2" y="265" text-anchor="start" dominant-baseline="alphabetic" fill-opacity="1">–22</text><text fill="rgb(0,0,0)" stroke="none" font-family="geogebra-sans-serif, sans-serif" font-size="12px" font-style="normal" font-weight="normal" text-decoration="normal" x="51" y="265" text-anchor="start" dominant-baseline="alphabetic" fill-opacity="1">–20</text><text fill="none" stroke="rgb(255,255,255)" font-family="geogebra-sans-serif, sans-serif" font-size="12px" font-style="normal" font-weight="normal" text-decoration="normal" x="51" y="265" text-anchor="start" dominant-baseline="alphabetic" stroke-opacity="1" stroke-linejoin="bevel" stroke-miterlimit="10" stroke-width="3">–20</text><text fill="rgb(0,0,0)" stroke="none" font-family="geogebra-sans-serif, sans-serif" font-size="12px" font-style="normal" font-weight="normal" text-decoration="normal" x="51" y="265" text-anchor="start" dominant-baseline="alphabetic" fill-opacity="1">–20</text><text fill="rgb(0,0,0)" stroke="none" font-family="geogebra-sans-serif, sans-serif" font-size="12px" font-style="normal" font-weight="normal" text-decoration="normal" x="99" y="265" text-anchor="start" dominant-baseline="alphabetic" fill-opacity="1">–18</text><text fill="none" stroke="rgb(255,255,255)" font-family="geogebra-sans-serif, sans-serif" font-size="12px" font-style="normal" font-weight="normal" text-decoration="normal" x="99" y="265" text-anchor="start" dominant-baseline="alphabetic" stroke-opacity="1" stroke-linejoin="bevel" stroke-miterlimit="10" stroke-width="3">–18</text><text fill="rgb(0,0,0)" stroke="none" font-family="geogebra-sans-serif, sans-serif" font-size="12px" font-style="normal" font-weight="normal" text-decoration="normal" x="99" y="265" text-anchor="start" dominant-baseline="alphabetic" fill-opacity="1">–18</text><text fill="rgb(0,0,0)" stroke="none" font-family="geogebra-sans-serif, sans-serif" font-size="12px" font-style="normal" font-weight="normal" text-decoration="normal" x="148" y="265" text-anchor="start" dominant-baseline="alphabetic" fill-opacity="1">–16</text><text fill="none" stroke="rgb(255,255,255)" font-family="geogebra-sans-serif, sans-serif" font-size="12px" font-style="normal" font-weight="normal" text-decoration="normal" x="148" y="265" text-anchor="start" dominant-baseline="alphabetic" stroke-opacity="1" stroke-linejoin="bevel" stroke-miterlimit="10" stroke-width="3">–16</text><text fill="rgb(0,0,0)" stroke="none" font-family="geogebra-sans-serif, sans-serif" font-size="12px" font-style="normal" font-weight="normal" text-decoration="normal" x="148" y="265" text-anchor="start" dominant-baseline="alphabetic" fill-opacity="1">–16</text><text fill="rgb(0,0,0)" stroke="none" font-family="geogebra-sans-serif, sans-serif" font-size="12px" font-style="normal" font-weight="normal" text-decoration="normal" x="196" y="265" text-anchor="start" dominant-baseline="alphabetic" fill-opacity="1">–14</text><text fill="none" stroke="rgb(255,255,255)" font-family="geogebra-sans-serif, sans-serif" font-size="12px" font-style="normal" font-weight="normal" text-decoration="normal" x="196" y="265" text-anchor="start" dominant-baseline="alphabetic" stroke-opacity="1" stroke-linejoin="bevel" stroke-miterlimit="10" stroke-width="3">–14</text><text fill="rgb(0,0,0)" stroke="none" font-family="geogebra-sans-serif, sans-serif" font-size="12px" font-style="normal" font-weight="normal" text-decoration="normal" x="196" y="265" text-anchor="start" dominant-baseline="alphabetic" fill-opacity="1">–14</text><text fill="rgb(0,0,0)" stroke="none" font-family="geogebra-sans-serif, sans-serif" font-size="12px" font-style="normal" font-weight="normal" text-decoration="normal" x="244" y="265" text-anchor="start" dominant-baseline="alphabetic" fill-opacity="1">–12</text><text fill="none" stroke="rgb(255,255,255)" font-family="geogebra-sans-serif, sans-serif" font-size="12px" font-style="normal" font-weight="normal" text-decoration="normal" x="244" y="265" text-anchor="start" dominant-baseline="alphabetic" stroke-opacity="1" stroke-linejoin="bevel" stroke-miterlimit="10" stroke-width="3">–12</text><text fill="rgb(0,0,0)" stroke="none" font-family="geogebra-sans-serif, sans-serif" font-size="12px" font-style="normal" font-weight="normal" text-decoration="normal" x="244" y="265" text-anchor="start" dominant-baseline="alphabetic" fill-opacity="1">–12</text><text fill="rgb(0,0,0)" stroke="none" font-family="geogebra-sans-serif, sans-serif" font-size="12px" font-style="normal" font-weight="normal" text-decoration="normal" x="293" y="265" text-anchor="start" dominant-baseline="alphabetic" fill-opacity="1">–10</text><text fill="none" stroke="rgb(255,255,255)" font-family="geogebra-sans-serif, sans-serif" font-size="12px" font-style="normal" font-weight="normal" text-decoration="normal" x="293" y="265" text-anchor="start" dominant-baseline="alphabetic" stroke-opacity="1" stroke-linejoin="bevel" stroke-miterlimit="10" stroke-width="3">–10</text><text fill="rgb(0,0,0)" stroke="none" font-family="geogebra-sans-serif, sans-serif" font-size="12px" font-style="normal" font-weight="normal" text-decoration="normal" x="293" y="265" text-anchor="start" dominant-baseline="alphabetic" fill-opacity="1">–10</text><text fill="rgb(0,0,0)" stroke="none" font-family="geogebra-sans-serif, sans-serif" font-size="12px" font-style="normal" font-weight="normal" text-decoration="normal" x="344" y="265" text-anchor="start" dominant-baseline="alphabetic" fill-opacity="1">–8</text><text fill="none" stroke="rgb(255,255,255)" font-family="geogebra-sans-serif, sans-serif" font-size="12px" font-style="normal" font-weight="normal" text-decoration="normal" x="344" y="265" text-anchor="start" dominant-baseline="alphabetic" stroke-opacity="1" stroke-linejoin="bevel" stroke-miterlimit="10" stroke-width="3">–8</text><text fill="rgb(0,0,0)" stroke="none" font-family="geogebra-sans-serif, sans-serif" font-size="12px" font-style="normal" font-weight="normal" text-decoration="normal" x="344" y="265" text-anchor="start" dominant-baseline="alphabetic" fill-opacity="1">–8</text><text fill="rgb(0,0,0)" stroke="none" font-family="geogebra-sans-serif, sans-serif" font-size="12px" font-style="normal" font-weight="normal" text-decoration="normal" x="393" y="265" text-anchor="start" dominant-baseline="alphabetic" fill-opacity="1">–6</text><text fill="none" stroke="rgb(255,255,255)" font-family="geogebra-sans-serif, sans-serif" font-size="12px" font-style="normal" font-weight="normal" text-decoration="normal" x="393" y="265" text-anchor="start" dominant-baseline="alphabetic" stroke-opacity="1" stroke-linejoin="bevel" stroke-miterlimit="10" stroke-width="3">–6</text><text fill="rgb(0,0,0)" stroke="none" font-family="geogebra-sans-serif, sans-serif" font-size="12px" font-style="normal" font-weight="normal" text-decoration="normal" x="393" y="265" text-anchor="start" dominant-baseline="alphabetic" fill-opacity="1">–6</text><text fill="rgb(0,0,0)" stroke="none" font-family="geogebra-sans-serif, sans-serif" font-size="12px" font-style="normal" font-weight="normal" text-decoration="normal" x="441" y="265" text-anchor="start" dominant-baseline="alphabetic" fill-opacity="1">–4</text><text fill="none" stroke="rgb(255,255,255)" font-family="geogebra-sans-serif, sans-serif" font-size="12px" font-style="normal" font-weight="normal" text-decoration="normal" x="441" y="265" text-anchor="start" dominant-baseline="alphabetic" stroke-opacity="1" stroke-linejoin="bevel" stroke-miterlimit="10" stroke-width="3">–4</text><text fill="rgb(0,0,0)" stroke="none" font-family="geogebra-sans-serif, sans-serif" font-size="12px" font-style="normal" font-weight="normal" text-decoration="normal" x="441" y="265" text-anchor="start" dominant-baseline="alphabetic" fill-opacity="1">–4</text><text fill="rgb(0,0,0)" stroke="none" font-family="geogebra-sans-serif, sans-serif" font-size="12px" font-style="normal" font-weight="normal" text-decoration="normal" x="489" y="265" text-anchor="start" dominant-baseline="alphabetic" fill-opacity="1">–2</text><text fill="none" stroke="rgb(255,255,255)" font-family="geogebra-sans-serif, sans-serif" font-size="12px" font-style="normal" font-weight="normal" text-decoration="normal" x="489" y="265" text-anchor="start" dominant-baseline="alphabetic" stroke-opacity="1" stroke-linejoin="bevel" stroke-miterlimit="10" stroke-width="3">–2</text><text fill="rgb(0,0,0)" stroke="none" font-family="geogebra-sans-serif, sans-serif" font-size="12px" font-style="normal" font-weight="normal" text-decoration="normal" x="489" y="265" text-anchor="start" dominant-baseline="alphabetic" fill-opacity="1">–2</text><text fill="rgb(0,0,0)" stroke="none" font-family="geogebra-sans-serif, sans-serif" font-size="12px" font-style="normal" font-weight="normal" text-decoration="normal" x="589" y="265" text-anchor="start" dominant-baseline="alphabetic" fill-opacity="1">2</text><text fill="none" stroke="rgb(255,255,255)" font-family="geogebra-sans-serif, sans-serif" font-size="12px" font-style="normal" font-weight="normal" text-decoration="normal" x="589" y="265" text-anchor="start" dominant-baseline="alphabetic" stroke-opacity="1" stroke-linejoin="bevel" stroke-miterlimit="10" stroke-width="3">2</text><text fill="rgb(0,0,0)" stroke="none" font-family="geogebra-sans-serif, sans-serif" font-size="12px" font-style="normal" font-weight="normal" text-decoration="normal" x="589" y="265" text-anchor="start" dominant-baseline="alphabetic" fill-opacity="1">2</text><text fill="rgb(0,0,0)" stroke="none" font-family="geogebra-sans-serif, sans-serif" font-size="12px" font-style="normal" font-weight="normal" text-decoration="normal" x="637" y="265" text-anchor="start" dominant-baseline="alphabetic" fill-opacity="1">4</text><text fill="none" stroke="rgb(255,255,255)" font-family="geogebra-sans-serif, sans-serif" font-size="12px" font-style="normal" font-weight="normal" text-decoration="normal" x="637" y="265" text-anchor="start" dominant-baseline="alphabetic" stroke-opacity="1" stroke-linejoin="bevel" stroke-miterlimit="10" stroke-width="3">4</text><text fill="rgb(0,0,0)" stroke="none" font-family="geogebra-sans-serif, sans-serif" font-size="12px" font-style="normal" font-weight="normal" text-decoration="normal" x="637" y="265" text-anchor="start" dominant-baseline="alphabetic" fill-opacity="1">4</text><text fill="rgb(0,0,0)" stroke="none" font-family="geogebra-sans-serif, sans-serif" font-size="12px" font-style="normal" font-weight="normal" text-decoration="normal" x="686" y="265" text-anchor="start" dominant-baseline="alphabetic" fill-opacity="1">6</text><text fill="none" stroke="rgb(255,255,255)" font-family="geogebra-sans-serif, sans-serif" font-size="12px" font-style="normal" font-weight="normal" text-decoration="normal" x="686" y="265" text-anchor="start" dominant-baseline="alphabetic" stroke-opacity="1" stroke-linejoin="bevel" stroke-miterlimit="10" stroke-width="3">6</text><text fill="rgb(0,0,0)" stroke="none" font-family="geogebra-sans-serif, sans-serif" font-size="12px" font-style="normal" font-weight="normal" text-decoration="normal" x="686" y="265" text-anchor="start" dominant-baseline="alphabetic" fill-opacity="1">6</text><text fill="rgb(0,0,0)" stroke="none" font-family="geogebra-sans-serif, sans-serif" font-size="12px" font-style="normal" font-weight="normal" text-decoration="normal" x="734" y="265" text-anchor="start" dominant-baseline="alphabetic" fill-opacity="1">8</text><text fill="none" stroke="rgb(255,255,255)" font-family="geogebra-sans-serif, sans-serif" font-size="12px" font-style="normal" font-weight="normal" text-decoration="normal" x="734" y="265" text-anchor="start" dominant-baseline="alphabetic" stroke-opacity="1" stroke-linejoin="bevel" stroke-miterlimit="10" stroke-width="3">8</text><text fill="rgb(0,0,0)" stroke="none" font-family="geogebra-sans-serif, sans-serif" font-size="12px" font-style="normal" font-weight="normal" text-decoration="normal" x="734" y="265" text-anchor="start" dominant-baseline="alphabetic" fill-opacity="1">8</text><text fill="rgb(0,0,0)" stroke="none" font-family="geogebra-sans-serif, sans-serif" font-size="12px" font-style="normal" font-weight="normal" text-decoration="normal" x="780" y="265" text-anchor="start" dominant-baseline="alphabetic" fill-opacity="1">10</text><text fill="none" stroke="rgb(255,255,255)" font-family="geogebra-sans-serif, sans-serif" font-size="12px" font-style="normal" font-weight="normal" text-decoration="normal" x="780" y="265" text-anchor="start" dominant-baseline="alphabetic" stroke-opacity="1" stroke-linejoin="bevel" stroke-miterlimit="10" stroke-width="3">10</text><text fill="rgb(0,0,0)" stroke="none" font-family="geogebra-sans-serif, sans-serif" font-size="12px" font-style="normal" font-weight="normal" text-decoration="normal" x="780" y="265" text-anchor="start" dominant-baseline="alphabetic" fill-opacity="1">10</text><text fill="rgb(0,0,0)" stroke="none" font-family="geogebra-sans-serif, sans-serif" font-size="12px" font-style="normal" font-weight="normal" text-decoration="normal" x="828" y="265" text-anchor="start" dominant-baseline="alphabetic" fill-opacity="1">12</text><text fill="none" stroke="rgb(255,255,255)" font-family="geogebra-sans-serif, sans-serif" font-size="12px" font-style="normal" font-weight="normal" text-decoration="normal" x="828" y="265" text-anchor="start" dominant-baseline="alphabetic" stroke-opacity="1" stroke-linejoin="bevel" stroke-miterlimit="10" stroke-width="3">12</text><text fill="rgb(0,0,0)" stroke="none" font-family="geogebra-sans-serif, sans-serif" font-size="12px" font-style="normal" font-weight="normal" text-decoration="normal" x="828" y="265" text-anchor="start" dominant-baseline="alphabetic" fill-opacity="1">12</text><text fill="rgb(0,0,0)" stroke="none" font-family="geogebra-sans-serif, sans-serif" font-size="12px" font-style="normal" font-weight="normal" text-decoration="normal" x="876" y="265" text-anchor="start" dominant-baseline="alphabetic" fill-opacity="1">14</text><text fill="none" stroke="rgb(255,255,255)" font-family="geogebra-sans-serif, sans-serif" font-size="12px" font-style="normal" font-weight="normal" text-decoration="normal" x="876" y="265" text-anchor="start" dominant-baseline="alphabetic" stroke-opacity="1" stroke-linejoin="bevel" stroke-miterlimit="10" stroke-width="3">14</text><text fill="rgb(0,0,0)" stroke="none" font-family="geogebra-sans-serif, sans-serif" font-size="12px" font-style="normal" font-weight="normal" text-decoration="normal" x="876" y="265" text-anchor="start" dominant-baseline="alphabetic" fill-opacity="1">14</text><text fill="rgb(0,0,0)" stroke="none" font-family="geogebra-sans-serif, sans-serif" font-size="12px" font-style="normal" font-weight="normal" text-decoration="normal" x="925" y="265" text-anchor="start" dominant-baseline="alphabetic" fill-opacity="1">16</text><text fill="none" stroke="rgb(255,255,255)" font-family="geogebra-sans-serif, sans-serif" font-size="12px" font-style="normal" font-weight="normal" text-decoration="normal" x="925" y="265" text-anchor="start" dominant-baseline="alphabetic" stroke-opacity="1" stroke-linejoin="bevel" stroke-miterlimit="10" stroke-width="3">16</text><text fill="rgb(0,0,0)" stroke="none" font-family="geogebra-sans-serif, sans-serif" font-size="12px" font-style="normal" font-weight="normal" text-decoration="normal" x="925" y="265" text-anchor="start" dominant-baseline="alphabetic" fill-opacity="1">16</text><text fill="rgb(0,0,0)" stroke="none" font-family="geogebra-sans-serif, sans-serif" font-size="12px" font-style="normal" font-weight="normal" text-decoration="normal" x="973" y="265" text-anchor="start" dominant-baseline="alphabetic" fill-opacity="1">18</text><text fill="none" stroke="rgb(255,255,255)" font-family="geogebra-sans-serif, sans-serif" font-size="12px" font-style="normal" font-weight="normal" text-decoration="normal" x="973" y="265" text-anchor="start" dominant-baseline="alphabetic" stroke-opacity="1" stroke-linejoin="bevel" stroke-miterlimit="10" stroke-width="3">18</text><text fill="rgb(0,0,0)" stroke="none" font-family="geogebra-sans-serif, sans-serif" font-size="12px" font-style="normal" font-weight="normal" text-decoration="normal" x="973" y="265" text-anchor="start" dominant-baseline="alphabetic" fill-opacity="1">18</text><text fill="rgb(0,0,0)" stroke="none" font-family="geogebra-sans-serif, sans-serif" font-size="12px" font-style="normal" font-weight="normal" text-decoration="normal" x="1021" y="265" text-anchor="start" dominant-baseline="alphabetic" fill-opacity="1">20</text><text fill="none" stroke="rgb(255,255,255)" font-family="geogebra-sans-serif, sans-serif" font-size="12px" font-style="normal" font-weight="normal" text-decoration="normal" x="1021" y="265" text-anchor="start" dominant-baseline="alphabetic" stroke-opacity="1" stroke-linejoin="bevel" stroke-miterlimit="10" stroke-width="3">20</text><text fill="rgb(0,0,0)" stroke="none" font-family="geogebra-sans-serif, sans-serif" font-size="12px" font-style="normal" font-weight="normal" text-decoration="normal" x="1021" y="265" text-anchor="start" dominant-baseline="alphabetic" fill-opacity="1">20</text><text fill="rgb(0,0,0)" stroke="none" font-family="geogebra-sans-serif, sans-serif" font-size="12px" font-style="normal" font-weight="normal" text-decoration="normal" x="1070" y="265" text-anchor="start" dominant-baseline="alphabetic" fill-opacity="1">22</text><text fill="none" stroke="rgb(255,255,255)" font-family="geogebra-sans-serif, sans-serif" font-size="12px" font-style="normal" font-weight="normal" text-decoration="normal" x="1070" y="265" text-anchor="start" dominant-baseline="alphabetic" stroke-opacity="1" stroke-linejoin="bevel" stroke-miterlimit="10" stroke-width="3">22</text><text fill="rgb(0,0,0)" stroke="none" font-family="geogebra-sans-serif, sans-serif" font-size="12px" font-style="normal" font-weight="normal" text-decoration="normal" x="1070" y="265" text-anchor="start" dominant-baseline="alphabetic" fill-opacity="1">22</text><text fill="rgb(0,0,0)" stroke="none" font-family="geogebra-sans-serif, sans-serif" font-size="12px" font-style="normal" font-weight="normal" text-decoration="normal" x="1118" y="265" text-anchor="start" dominant-baseline="alphabetic" fill-opacity="1">24</text><text fill="none" stroke="rgb(255,255,255)" font-family="geogebra-sans-serif, sans-serif" font-size="12px" font-style="normal" font-weight="normal" text-decoration="normal" x="1118" y="265" text-anchor="start" dominant-baseline="alphabetic" stroke-opacity="1" stroke-linejoin="bevel" stroke-miterlimit="10" stroke-width="3">24</text><text fill="rgb(0,0,0)" stroke="none" font-family="geogebra-sans-serif, sans-serif" font-size="12px" font-style="normal" font-weight="normal" text-decoration="normal" x="1118" y="265" text-anchor="start" dominant-baseline="alphabetic" fill-opacity="1">24</text><text fill="rgb(0,0,0)" stroke="none" font-family="geogebra-sans-serif, sans-serif" font-size="12px" font-style="normal" font-weight="normal" text-decoration="normal" x="516" y="642" text-anchor="start" dominant-baseline="alphabetic" fill-opacity="1">–16</text><text fill="none" stroke="rgb(255,255,255)" font-family="geogebra-sans-serif, sans-serif" font-size="12px" font-style="normal" font-weight="normal" text-decoration="normal" x="516" y="642" text-anchor="start" dominant-baseline="alphabetic" stroke-opacity="1" stroke-linejoin="bevel" stroke-miterlimit="10" stroke-width="3">–16</text><text fill="rgb(0,0,0)" stroke="none" font-family="geogebra-sans-serif, sans-serif" font-size="12px" font-style="normal" font-weight="normal" text-decoration="normal" x="516" y="642" text-anchor="start" dominant-baseline="alphabetic" fill-opacity="1">–16</text><text fill="rgb(0,0,0)" stroke="none" font-family="geogebra-sans-serif, sans-serif" font-size="12px" font-style="normal" font-weight="normal" text-decoration="normal" x="516" y="593" text-anchor="start" dominant-baseline="alphabetic" fill-opacity="1">–14</text><text fill="none" stroke="rgb(255,255,255)" font-family="geogebra-sans-serif, sans-serif" font-size="12px" font-style="normal" font-weight="normal" text-decoration="normal" x="516" y="593" text-anchor="start" dominant-baseline="alphabetic" stroke-opacity="1" stroke-linejoin="bevel" stroke-miterlimit="10" stroke-width="3">–14</text><text fill="rgb(0,0,0)" stroke="none" font-family="geogebra-sans-serif, sans-serif" font-size="12px" font-style="normal" font-weight="normal" text-decoration="normal" x="516" y="593" text-anchor="start" dominant-baseline="alphabetic" fill-opacity="1">–14</text><text fill="rgb(0,0,0)" stroke="none" font-family="geogebra-sans-serif, sans-serif" font-size="12px" font-style="normal" font-weight="normal" text-decoration="normal" x="516" y="545" text-anchor="start" dominant-baseline="alphabetic" fill-opacity="1">–12</text><text fill="none" stroke="rgb(255,255,255)" font-family="geogebra-sans-serif, sans-serif" font-size="12px" font-style="normal" font-weight="normal" text-decoration="normal" x="516" y="545" text-anchor="start" dominant-baseline="alphabetic" stroke-opacity="1" stroke-linejoin="bevel" stroke-miterlimit="10" stroke-width="3">–12</text><text fill="rgb(0,0,0)" stroke="none" font-family="geogebra-sans-serif, sans-serif" font-size="12px" font-style="normal" font-weight="normal" text-decoration="normal" x="516" y="545" text-anchor="start" dominant-baseline="alphabetic" fill-opacity="1">–12</text><text fill="rgb(0,0,0)" stroke="none" font-family="geogebra-sans-serif, sans-serif" font-size="12px" font-style="normal" font-weight="normal" text-decoration="normal" x="516" y="496" text-anchor="start" dominant-baseline="alphabetic" fill-opacity="1">–10</text><text fill="none" stroke="rgb(255,255,255)" font-family="geogebra-sans-serif, sans-serif" font-size="12px" font-style="normal" font-weight="normal" text-decoration="normal" x="516" y="496" text-anchor="start" dominant-baseline="alphabetic" stroke-opacity="1" stroke-linejoin="bevel" stroke-miterlimit="10" stroke-width="3">–10</text><text fill="rgb(0,0,0)" stroke="none" font-family="geogebra-sans-serif, sans-serif" font-size="12px" font-style="normal" font-weight="normal" text-decoration="normal" x="516" y="496" text-anchor="start" dominant-baseline="alphabetic" fill-opacity="1">–10</text><text fill="rgb(0,0,0)" stroke="none" font-family="geogebra-sans-serif, sans-serif" font-size="12px" font-style="normal" font-weight="normal" text-decoration="normal" x="523" y="448" text-anchor="start" dominant-baseline="alphabetic" fill-opacity="1">–8</text><text fill="none" stroke="rgb(255,255,255)" font-family="geogebra-sans-serif, sans-serif" font-size="12px" font-style="normal" font-weight="normal" text-decoration="normal" x="523" y="448" text-anchor="start" dominant-baseline="alphabetic" stroke-opacity="1" stroke-linejoin="bevel" stroke-miterlimit="10" stroke-width="3">–8</text><text fill="rgb(0,0,0)" stroke="none" font-family="geogebra-sans-serif, sans-serif" font-size="12px" font-style="normal" font-weight="normal" text-decoration="normal" x="523" y="448" text-anchor="start" dominant-baseline="alphabetic" fill-opacity="1">–8</text><text fill="rgb(0,0,0)" stroke="none" font-family="geogebra-sans-serif, sans-serif" font-size="12px" font-style="normal" font-weight="normal" text-decoration="normal" x="523" y="400" text-anchor="start" dominant-baseline="alphabetic" fill-opacity="1">–6</text><text fill="none" stroke="rgb(255,255,255)" font-family="geogebra-sans-serif, sans-serif" font-size="12px" font-style="normal" font-weight="normal" text-decoration="normal" x="523" y="400" text-anchor="start" dominant-baseline="alphabetic" stroke-opacity="1" stroke-linejoin="bevel" stroke-miterlimit="10" stroke-width="3">–6</text><text fill="rgb(0,0,0)" stroke="none" font-family="geogebra-sans-serif, sans-serif" font-size="12px" font-style="normal" font-weight="normal" text-decoration="normal" x="523" y="400" text-anchor="start" dominant-baseline="alphabetic" fill-opacity="1">–6</text><text fill="rgb(0,0,0)" stroke="none" font-family="geogebra-sans-serif, sans-serif" font-size="12px" font-style="normal" font-weight="normal" text-decoration="normal" x="523" y="351" text-anchor="start" dominant-baseline="alphabetic" fill-opacity="1">–4</text><text fill="none" stroke="rgb(255,255,255)" font-family="geogebra-sans-serif, sans-serif" font-size="12px" font-style="normal" font-weight="normal" text-decoration="normal" x="523" y="351" text-anchor="start" dominant-baseline="alphabetic" stroke-opacity="1" stroke-linejoin="bevel" stroke-miterlimit="10" stroke-width="3">–4</text><text fill="rgb(0,0,0)" stroke="none" font-family="geogebra-sans-serif, sans-serif" font-size="12px" font-style="normal" font-weight="normal" text-decoration="normal" x="523" y="351" text-anchor="start" dominant-baseline="alphabetic" fill-opacity="1">–4</text><text fill="rgb(0,0,0)" stroke="none" font-family="geogebra-sans-serif, sans-serif" font-size="12px" font-style="normal" font-weight="normal" text-decoration="normal" x="523" y="303" text-anchor="start" dominant-baseline="alphabetic" fill-opacity="1">–2</text><text fill="none" stroke="rgb(255,255,255)" font-family="geogebra-sans-serif, sans-serif" font-size="12px" font-style="normal" font-weight="normal" text-decoration="normal" x="523" y="303" text-anchor="start" dominant-baseline="alphabetic" stroke-opacity="1" stroke-linejoin="bevel" stroke-miterlimit="10" stroke-width="3">–2</text><text fill="rgb(0,0,0)" stroke="none" font-family="geogebra-sans-serif, sans-serif" font-size="12px" font-style="normal" font-weight="normal" text-decoration="normal" x="523" y="303" text-anchor="start" dominant-baseline="alphabetic" fill-opacity="1">–2</text><text fill="rgb(0,0,0)" stroke="none" font-family="geogebra-sans-serif, sans-serif" font-size="12px" font-style="normal" font-weight="normal" text-decoration="normal" x="529" y="206" text-anchor="start" dominant-baseline="alphabetic" fill-opacity="1">2</text><text fill="none" stroke="rgb(255,255,255)" font-family="geogebra-sans-serif, sans-serif" font-size="12px" font-style="normal" font-weight="normal" text-decoration="normal" x="529" y="206" text-anchor="start" dominant-baseline="alphabetic" stroke-opacity="1" stroke-linejoin="bevel" stroke-miterlimit="10" stroke-width="3">2</text><text fill="rgb(0,0,0)" stroke="none" font-family="geogebra-sans-serif, sans-serif" font-size="12px" font-style="normal" font-weight="normal" text-decoration="normal" x="529" y="206" text-anchor="start" dominant-baseline="alphabetic" fill-opacity="1">2</text><text fill="rgb(0,0,0)" stroke="none" font-family="geogebra-sans-serif, sans-serif" font-size="12px" font-style="normal" font-weight="normal" text-decoration="normal" x="529" y="158" text-anchor="start" dominant-baseline="alphabetic" fill-opacity="1">4</text><text fill="none" stroke="rgb(255,255,255)" font-family="geogebra-sans-serif, sans-serif" font-size="12px" font-style="normal" font-weight="normal" text-decoration="normal" x="529" y="158" text-anchor="start" dominant-baseline="alphabetic" stroke-opacity="1" stroke-linejoin="bevel" stroke-miterlimit="10" stroke-width="3">4</text><text fill="rgb(0,0,0)" stroke="none" font-family="geogebra-sans-serif, sans-serif" font-size="12px" font-style="normal" font-weight="normal" text-decoration="normal" x="529" y="158" text-anchor="start" dominant-baseline="alphabetic" fill-opacity="1">4</text><text fill="rgb(0,0,0)" stroke="none" font-family="geogebra-sans-serif, sans-serif" font-size="12px" font-style="normal" font-weight="normal" text-decoration="normal" x="529" y="109" text-anchor="start" dominant-baseline="alphabetic" fill-opacity="1">6</text><text fill="none" stroke="rgb(255,255,255)" font-family="geogebra-sans-serif, sans-serif" font-size="12px" font-style="normal" font-weight="normal" text-decoration="normal" x="529" y="109" text-anchor="start" dominant-baseline="alphabetic" stroke-opacity="1" stroke-linejoin="bevel" stroke-miterlimit="10" stroke-width="3">6</text><text fill="rgb(0,0,0)" stroke="none" font-family="geogebra-sans-serif, sans-serif" font-size="12px" font-style="normal" font-weight="normal" text-decoration="normal" x="529" y="109" text-anchor="start" dominant-baseline="alphabetic" fill-opacity="1">6</text><text fill="rgb(0,0,0)" stroke="none" font-family="geogebra-sans-serif, sans-serif" font-size="12px" font-style="normal" font-weight="normal" text-decoration="normal" x="529" y="61" text-anchor="start" dominant-baseline="alphabetic" fill-opacity="1">8</text><text fill="none" stroke="rgb(255,255,255)" font-family="geogebra-sans-serif, sans-serif" font-size="12px" font-style="normal" font-weight="normal" text-decoration="normal" x="529" y="61" text-anchor="start" dominant-baseline="alphabetic" stroke-opacity="1" stroke-linejoin="bevel" stroke-miterlimit="10" stroke-width="3">8</text><text fill="rgb(0,0,0)" stroke="none" font-family="geogebra-sans-serif, sans-serif" font-size="12px" font-style="normal" font-weight="normal" text-decoration="normal" x="529" y="61" text-anchor="start" dominant-baseline="alphabetic" fill-opacity="1">8</text><text fill="rgb(0,0,0)" stroke="none" font-family="geogebra-sans-serif, sans-serif" font-size="12px" font-style="normal" font-weight="normal" text-decoration="normal" x="529" y="265" text-anchor="start" dominant-baseline="alphabetic" fill-opacity="1">0</text><text fill="none" stroke="rgb(255,255,255)" font-family="geogebra-sans-serif, sans-serif" font-size="12px" font-style="normal" font-weight="normal" text-decoration="normal" x="529" y="265" text-anchor="start" dominant-baseline="alphabetic" stroke-opacity="1" stroke-linejoin="bevel" stroke-miterlimit="10" stroke-width="3">0</text><text fill="rgb(0,0,0)" stroke="none" font-family="geogebra-sans-serif, sans-serif" font-size="12px" font-style="normal" font-weight="normal" text-decoration="normal" x="529" y="265" text-anchor="start" dominant-baseline="alphabetic" fill-opacity="1">0</text><path fill="none" stroke="rgb(21,101,192)" paint-order="fill stroke markers" d=" M 463.86680976248715 -9.999999999999998 L 464.00000000000534 -9.122717976122317 L 464.00000000000534 -9.122717976122374 L 465.00000000000534 -2.6187081510577173 L 465.00000000000534 -2.6187081510578025 L 466.00000000000534 3.802627367977209 L 466.00000000000534 3.8026273679771236 L 467.00000000000534 10.141288580982547 L 467.00000000000534 10.141288580982462 L 468.00000000000534 16.39727548795824 L 468.00000000000534 16.397275487958154 L 469.00000000000534 22.570588088904316 L 469.00000000000534 22.57058808890423 L 470.00000000000534 28.66122638382072 L 470.00000000000534 28.661226383820633 L 471.00000000000534 34.66919037270756 L 471.00000000000534 34.669190372707476 L 472.00000000000534 40.59448005556476 L 472.00000000000534 40.594480055564674 L 473.00000000000534 46.43709543239231 L 473.00000000000534 46.437095432392226 L 474.00000000000534 52.19703650319025 L 474.00000000000534 52.19703650319016 L 475.0000000000053 57.87430326795851 L 475.0000000000053 57.87430326795848 L 476.0000000000053 63.468895726697184 L 476.0000000000053 63.468895726697156 L 477.0000000000053 68.98081387940624 L 477.0000000000053 68.98081387940618 L 478.0000000000053 74.41005772608565 L 478.0000000000053 74.41005772608563 L 479.0000000000053 79.75662726673548 L 479.0000000000053 79.75662726673542 L 480.0000000000053 85.02052250135563 L 480.0000000000053 85.0205225013556 L 481.0000000000053 90.20174342994619 L 481.0000000000053 90.20174342994613 L 482.0000000000053 95.30029005250711 L 482.0000000000053 95.30029005250705 L 483.0000000000053 100.31616236903838 L 483.0000000000053 100.31616236903835 L 484.0000000000053 105.24936037954006 L 484.0000000000053 105.24936037954001 L 485.0000000000053 110.0998840840121 L 485.0000000000053 110.09988408401205 L 486.0000000000053 114.8677334824545 L 486.0000000000053 114.86773348245444 L 487.0000000000053 119.55290857486727 L 487.0000000000053 119.55290857486725 L 488.0000000000053 124.15540936125043 L 488.0000000000053 124.15540936125039 L 489.0000000000053 128.67523584160395 L 489.0000000000053 128.67523584160392 L 490.00000000000523 133.11238801592788 L 490.00000000000523 133.11238801592782 L 491.00000000000523 137.46686588422213 L 491.00000000000523 137.4668658842221 L 492.00000000000523 141.73866944648677 L 492.00000000000523 141.73866944648674 L 493.00000000000523 145.92779870272182 L 493.00000000000523 145.92779870272176 L 494.00000000000523 150.0342536529272 L 494.00000000000523 150.03425365292713 L 495.00000000000523 154.05803429710295 L 495.00000000000523 154.05803429710295 L 496.00000000000523 157.99914063524912 L 496.00000000000523 157.9991406352491 L 497.00000000000523 161.85757266736567 L 497.00000000000523 161.85757266736562 L 498.00000000000523 165.63333039345258 L 498.00000000000523 165.63333039345252 L 499.00000000000523 169.32641381350984 L 499.00000000000523 169.32641381350982 L 500.0000000000053 172.9368229275375 L 500.0000000000053 172.93682292753746 L 501.0000000000053 176.4645577355355 L 501.0000000000053 176.4645577355355 L 502.0000000000053 179.90961823750388 L 502.0000000000053 179.90961823750388 L 503.0000000000053 183.27200443344265 L 503.0000000000053 183.27200443344265 L 504.0000000000053 186.5517163233518 L 504.0000000000053 186.55171632335177 L 505.0000000000053 189.7487539072313 L 505.0000000000053 189.74875390723128 L 506.0000000000053 192.8631171850812 L 506.0000000000053 192.86311718508117 L 507.0000000000053 195.89480615690144 L 507.0000000000053 195.8948061569014 L 508.0000000000053 198.84382082269207 L 508.0000000000053 198.84382082269204 L 509.0000000000053 201.71016118245305 L 509.0000000000053 201.71016118245302 L 510.0000000000053 204.49382723618442 L 510.0000000000053 204.49382723618442 L 511.0000000000053 207.19481898388614 L 511.0000000000053 207.19481898388614 L 512.0000000000053 209.81313642555827 L 512.0000000000053 209.81313642555824 L 513.0000000000053 212.34877956120076 L 513.0000000000053 212.34877956120073 L 514.0000000000053 214.8017483908136 L 514.0000000000053 214.8017483908136 L 515.0000000000053 217.17204291439685 L 515.0000000000053 217.17204291439683 L 516.0000000000053 219.45966313195044 L 516.0000000000053 219.45966313195044 L 517.0000000000053 221.6646090434744 L 517.0000000000053 221.6646090434744 L 518.0000000000053 223.78688064896875 L 518.0000000000053 223.78688064896875 L 519.0000000000053 225.82647794843348 L 519.0000000000053 225.82647794843348 L 520.0000000000053 227.78340094186856 L 520.0000000000053 227.78340094186854 L 521.0000000000053 229.657649629274 L 521.0000000000053 229.657649629274 L 522.0000000000053 231.44922401064983 L 522.0000000000053 231.44922401064983 L 523.0000000000053 233.15812408599604 L 523.0000000000053 233.15812408599604 L 524.0000000000053 234.78434985531263 L 524.0000000000053 234.7843498553126 L 525.0000000000053 236.32790131859957 L 525.0000000000053 236.32790131859957 L 526.0000000000053 237.78877847585687 L 526.0000000000053 237.78877847585687 L 527.0000000000053 239.16698132708459 L 527.0000000000053 239.16698132708456 L 528.0000000000053 240.46250987228265 L 528.0000000000053 240.46250987228262 L 529.0000000000053 241.67536411145107 L 529.0000000000053 241.67536411145107 L 530.0000000000053 242.80554404458988 L 530.0000000000053 242.80554404458988 L 531.0000000000053 243.85304967169907 L 531.0000000000053 243.85304967169907 L 532.0000000000053 244.8178809927786 L 532.0000000000053 244.8178809927786 L 533.0000000000053 245.70003800782854 L 533.0000000000053 245.70003800782854 L 534.0000000000053 246.49952071684885 L 534.0000000000053 246.49952071684885 L 535.0000000000053 247.21632911983951 L 535.0000000000053 247.21632911983951 L 536.0000000000053 247.85046321680056 L 536.0000000000053 247.85046321680056 L 537.0000000000053 248.401923007732 L 537.0000000000053 248.401923007732 L 538.0000000000053 248.87070849263378 L 538.0000000000053 248.87070849263378 L 539.0000000000053 249.25681967150595 L 539.0000000000053 249.25681967150595 L 540.0000000000053 249.56025654434848 L 540.0000000000053 249.56025654434848 L 541.0000000000053 249.78101911116138 L 541.0000000000053 249.78101911116138 L 542.0000000000053 249.91910737194468 L 542.0000000000053 249.91910737194468 L 543.0000000000053 249.97452132669832 L 543.0000000000053 249.94726097542235 L 544.0000000000053 249.97571974224428 L 544.0000000000053 249.94726097542235 L 545.0000000000053 249.83732631811674 L 545.0000000000053 249.83732631811674 L 546.0000000000053 249.6447173547815 L 546.0000000000053 249.6447173547815 L 547.0000000000053 249.36943408541666 L 547.0000000000053 249.36943408541666 L 548.0000000000053 249.01147651002216 L 548.0000000000053 249.01147651002216 L 549.0000000000053 248.57084462859805 L 549.0000000000053 248.57084462859805 L 550.0000000000053 248.04753844114433 L 550.0000000000053 248.04753844114433 L 551.0000000000053 247.44155794766095 L 551.0000000000053 247.44155794766095 L 552.0000000000053 246.75290314814796 L 552.0000000000053 246.75290314814796 L 553.0000000000053 245.98157404260533 L 553.0000000000053 245.98157404260533 L 554.0000000000053 245.1275706310331 L 554.0000000000053 245.1275706310331 L 555.0000000000053 244.1908929134312 L 555.0000000000053 244.1908929134312 L 556.0000000000053 243.1715408897997 L 556.0000000000053 243.17154088979973 L 557.0000000000053 242.06951456013857 L 557.0000000000053 242.0695145601386 L 558.0000000000053 240.88481392444783 L 558.0000000000053 240.88481392444783 L 559.0000000000053 239.61743898272744 L 559.0000000000053 239.61743898272744 L 560.0000000000053 238.26738973497743 L 560.0000000000053 238.26738973497743 L 561.0000000000053 236.83466618119778 L 561.0000000000053 236.8346661811978 L 562.0000000000053 235.3192683213885 L 562.0000000000053 235.3192683213885 L 563.0000000000053 233.72119615554962 L 563.0000000000053 233.72119615554962 L 564.0000000000053 232.0404496836811 L 564.0000000000053 232.04044968368112 L 565.0000000000053 230.27702890578294 L 565.0000000000053 230.27702890578294 L 566.0000000000053 228.43093382185518 L 566.0000000000053 228.43093382185518 L 567.0000000000053 226.50216443189777 L 567.0000000000053 226.50216443189777 L 568.0000000000053 224.4907207359107 L 568.0000000000053 224.49072073591074 L 569.0000000000053 222.39660273389404 L 569.0000000000053 222.39660273389407 L 570.0000000000053 220.21981042584775 L 570.0000000000053 220.21981042584778 L 571.0000000000053 217.96034381177185 L 571.0000000000053 217.96034381177185 L 572.0000000000053 215.6182028916663 L 572.0000000000053 215.6182028916663 L 573.0000000000053 213.1933876655311 L 573.0000000000053 213.19338766553113 L 574.0000000000053 210.68589813336632 L 574.0000000000053 210.68589813336632 L 575.0000000000053 208.09573429517187 L 575.0000000000053 208.0957342951719 L 576.0000000000053 205.42289615094782 L 576.0000000000053 205.42289615094782 L 577.0000000000053 202.66738370069413 L 577.0000000000053 202.66738370069413 L 578.0000000000053 199.8291969444108 L 578.0000000000053 199.82919694441082 L 579.0000000000053 196.90833588209784 L 579.0000000000053 196.90833588209787 L 580.0000000000053 193.90480051375528 L 580.0000000000053 193.9048005137553 L 581.0000000000053 190.8185908393831 L 581.0000000000053 190.8185908393831 L 582.0000000000053 187.64970685898126 L 582.0000000000053 187.6497068589813 L 583.0000000000053 184.39814857254981 L 583.0000000000053 184.39814857254981 L 584.0000000000053 181.06391598008872 L 584.0000000000053 181.06391598008872 L 585.0000000000053 177.64700908159801 L 585.0000000000053 177.64700908159801 L 586.0000000000053 174.14742787707766 L 586.0000000000053 174.1474278770777 L 587.0000000000053 170.5651723665277 L 587.0000000000053 170.5651723665277 L 588.0000000000053 166.90024254994808 L 588.0000000000053 166.90024254994813 L 589.0000000000053 163.15263842733887 L 589.0000000000053 163.1526384273389 L 590.0000000000053 159.32235999870002 L 590.0000000000053 159.32235999870005 L 591.0000000000053 155.40940726403153 L 591.0000000000053 155.40940726403156 L 592.0000000000053 151.41378022333345 L 592.0000000000053 151.41378022333348 L 593.0000000000053 147.33547887660572 L 593.0000000000053 147.33547887660575 L 594.0000000000053 143.17450322384838 L 594.0000000000053 143.17450322384843 L 595.0000000000053 138.9308532650614 L 595.0000000000053 138.93085326506144 L 596.0000000000053 134.6045290002448 L 596.0000000000053 134.60452900024484 L 597.0000000000053 130.1955304293986 L 597.0000000000053 130.19553042939862 L 598.0000000000053 125.70385755252275 L 598.0000000000053 125.70385755252279 L 599.0000000000053 121.12951036961726 L 599.0000000000053 121.1295103696173 L 600.0000000000053 116.47248888068216 L 600.0000000000053 116.47248888068219 L 601.0000000000053 111.73279308571745 L 601.0000000000053 111.73279308571747 L 602.0000000000053 106.91042298472308 L 602.0000000000053 106.91042298472311 L 603.0000000000053 102.0053785776991 L 603.0000000000053 102.00537857769913 L 604.0000000000053 97.01765986464548 L 604.0000000000053 97.01765986464551 L 605.0000000000053 91.94726684556224 L 605.0000000000053 91.94726684556227 L 606.0000000000053 86.79419952044938 L 606.0000000000053 86.79419952044941 L 607.0000000000053 81.55845788930688 L 607.0000000000053 81.55845788930694 L 608.0000000000053 76.24004195213476 L 608.0000000000053 76.24004195213482 L 609.0000000000053 70.83895170893302 L 609.0000000000053 70.83895170893308 L 610.0000000000053 65.35518715970167 L 610.0000000000053 65.3551871597017 L 611.0000000000052 59.788748304440645 L 611.0000000000052 59.788748304440674 L 612.0000000000052 54.13963514315 L 612.0000000000052 54.13963514315009 L 613.0000000000052 48.40784767582977 L 613.0000000000052 48.407847675829856 L 614.0000000000052 42.593385902479866 L 614.0000000000052 42.59338590247995 L 615.0000000000052 36.69624982310037 L 615.0000000000052 36.69624982310046 L 616.0000000000052 30.716439437691236 L 616.0000000000052 30.71643943769132 L 617.0000000000052 24.65395474625248 L 617.0000000000052 24.653954746252566 L 618.0000000000052 18.50879574878408 L 618.0000000000052 18.508795748784166 L 619.0000000000052 12.280962445286065 L 619.0000000000052 12.28096244528615 L 620.0000000000052 5.970454835758403 L 620.0000000000052 5.970454835758488 L 621.0000000000052 -0.4227270797988467 L 621.0000000000052 -0.42272707979876145 L 622.0000000000052 -6.898583301385713 L 622.0000000000052 -6.898583301385656 L 622.4728828638655 -10" stroke-opacity="0.8" stroke-linecap="round" stroke-linejoin="round" stroke-miterlimit="10" stroke-width="2.5"/><text fill="rgb(21,101,192)" stroke="none" font-family="geogebra-sans-serif, sans-serif" font-size="16px" font-style="normal" font-weight="normal" text-decoration="normal" x="466" y="24" text-anchor="start" dominant-baseline="alphabetic" fill-opacity="1">f</text><text fill="none" stroke="rgb(255,255,255)" font-family="geogebra-sans-serif, sans-serif" font-size="16px" font-style="normal" font-weight="normal" text-decoration="normal" x="466" y="24" text-anchor="start" dominant-baseline="alphabetic" stroke-opacity="1" stroke-linejoin="bevel" stroke-miterlimit="10" stroke-width="3">f</text><text fill="rgb(21,101,192)" stroke="none" font-family="geogebra-sans-serif, sans-serif" font-size="16px" font-style="normal" font-weight="normal" text-decoration="normal" x="466" y="24" text-anchor="start" dominant-baseline="alphabetic" fill-opacity="1">f</text><path fill="none" stroke="rgb(211,47,47)" paint-order="fill stroke markers" d=" M 498.43041204497996 -10 L 499.00000000000523 -3.391547280583609 L 499.00000000000523 -3.3915472805836373 L 500.0000000000053 7.950887468499275 L 500.0000000000053 7.950887468499246 L 501.0000000000053 19.033593225118864 L 501.0000000000053 19.033593225118835 L 502.0000000000053 29.856569989275158 L 502.0000000000053 29.856569989275073 L 503.0000000000053 40.4198177609681 L 503.0000000000053 40.419817760968016 L 504.0000000000053 50.72333654019772 L 504.0000000000053 50.723336540197636 L 505.0000000000053 60.76712632696402 L 505.0000000000053 60.76712632696396 L 506.0000000000053 70.55118712126705 L 506.0000000000053 70.55118712126699 L 507.0000000000053 80.07551892310673 L 507.0000000000053 80.07551892310667 L 508.0000000000053 89.34012173248314 L 508.0000000000053 89.34012173248308 L 509.0000000000053 98.3449955493962 L 509.0000000000053 98.34499554939615 L 510.0000000000053 107.09014037384594 L 510.0000000000053 107.09014037384591 L 511.0000000000053 115.57555620583238 L 511.0000000000053 115.57555620583236 L 512.0000000000053 123.8012430453555 L 512.0000000000053 123.80124304535549 L 513.0000000000053 131.7672008924153 L 513.0000000000053 131.7672008924153 L 514.0000000000053 139.47342974701183 L 514.0000000000053 139.4734297470118 L 515.0000000000053 146.91992960914504 L 515.0000000000053 146.91992960914502 L 516.0000000000053 154.1067004788149 L 516.0000000000053 154.1067004788149 L 517.0000000000053 161.0337423560215 L 517.0000000000053 161.03374235602143 L 518.0000000000053 167.70105524076473 L 518.0000000000053 167.70105524076467 L 519.0000000000053 174.10863913304462 L 519.0000000000053 174.10863913304462 L 520.0000000000053 180.25649403286124 L 520.0000000000053 180.2564940328612 L 521.0000000000053 186.14461994021454 L 521.0000000000053 186.1446199402145 L 522.0000000000053 191.77301685510452 L 522.0000000000053 191.77301685510452 L 523.0000000000053 197.1416847775312 L 523.0000000000053 197.14168477753117 L 524.0000000000053 202.25062370749455 L 524.0000000000053 202.25062370749453 L 525.0000000000053 207.0998336449946 L 525.0000000000053 207.0998336449946 L 526.0000000000053 211.68931459003133 L 526.0000000000053 211.68931459003133 L 527.0000000000053 216.01906654260478 L 527.0000000000053 216.01906654260475 L 528.0000000000053 220.08908950271487 L 528.0000000000053 220.08908950271487 L 529.0000000000053 223.89938347036167 L 529.0000000000053 223.89938347036167 L 530.0000000000053 227.44994844554517 L 530.0000000000053 227.44994844554515 L 531.0000000000053 230.74078442826536 L 531.0000000000053 230.74078442826533 L 532.0000000000053 233.77189141852222 L 532.0000000000053 233.77189141852222 L 533.0000000000053 236.54326941631575 L 533.0000000000053 236.54326941631575 L 534.0000000000053 239.054918421646 L 534.0000000000053 239.054918421646 L 535.0000000000053 241.30683843451294 L 535.0000000000053 241.30683843451294 L 536.0000000000053 243.29902945491656 L 536.0000000000053 243.29902945491656 L 537.0000000000053 245.03149148285686 L 537.0000000000053 245.03149148285686 L 538.0000000000053 246.50422451833384 L 538.0000000000053 246.50422451833384 L 539.0000000000053 247.71722856134753 L 539.0000000000053 247.71722856134753 L 540.0000000000053 248.6705036118979 L 540.0000000000053 248.6705036118979 L 541.0000000000053 249.36404966998498 L 541.0000000000053 249.36404966998498 L 542.0000000000053 249.79786673560872 L 542.0000000000053 249.79786673560872 L 543.0000000000053 249.97195480876914 L 543.0000000000053 249.88631388946627 L 544.0000000000053 249.97571974224428 L 544.0000000000053 249.88631388946627 L 545.0000000000053 249.54094397770007 L 545.0000000000053 249.54094397770007 L 546.0000000000053 248.93584507347057 L 546.0000000000053 248.93584507347057 L 547.0000000000053 248.07101717677776 L 547.0000000000053 248.07101717677776 L 548.0000000000053 246.94646028762165 L 548.0000000000053 246.94646028762165 L 549.0000000000053 245.5621744060022 L 549.0000000000053 245.5621744060022 L 550.0000000000053 243.91815953191946 L 550.0000000000053 243.91815953191946 L 551.0000000000053 242.01441566537338 L 551.0000000000053 242.0144156653734 L 552.0000000000053 239.850942806364 L 552.0000000000053 239.85094280636403 L 553.0000000000053 237.42774095489133 L 553.0000000000053 237.42774095489133 L 554.0000000000053 234.74481011095534 L 554.0000000000053 234.74481011095534 L 555.0000000000053 231.80215027455603 L 555.0000000000053 231.80215027455603 L 556.0000000000053 228.59976144569342 L 556.0000000000053 228.59976144569342 L 557.0000000000053 225.13764362436746 L 557.0000000000053 225.13764362436748 L 558.0000000000053 221.41579681057823 L 558.0000000000053 221.41579681057823 L 559.0000000000053 217.43422100432568 L 559.0000000000053 217.43422100432568 L 560.0000000000053 213.1929162056098 L 560.0000000000053 213.1929162056098 L 561.0000000000053 208.6918824144306 L 561.0000000000053 208.69188241443064 L 562.0000000000053 203.93111963078812 L 562.0000000000053 203.93111963078815 L 563.0000000000053 198.91062785468233 L 563.0000000000053 198.91062785468233 L 564.0000000000053 193.6304070861132 L 564.0000000000053 193.63040708611322 L 565.0000000000053 188.0904573250808 L 565.0000000000053 188.0904573250808 L 566.0000000000053 182.29077857158504 L 566.0000000000053 182.29077857158507 L 567.0000000000053 176.231370825626 L 567.0000000000053 176.23137082562602 L 568.0000000000053 169.91223408720361 L 568.0000000000053 169.91223408720364 L 569.0000000000053 163.33336835631792 L 569.0000000000053 163.33336835631795 L 570.0000000000053 156.49477363296887 L 570.0000000000053 156.49477363296893 L 571.0000000000053 149.3964499171566 L 571.0000000000053 149.3964499171566 L 572.0000000000053 142.03839720888095 L 572.0000000000053 142.03839720888095 L 573.0000000000053 134.420615508142 L 573.0000000000053 134.42061550814202 L 574.0000000000053 126.54310481493972 L 574.0000000000053 126.54310481493975 L 575.0000000000053 118.40586512927416 L 575.0000000000053 118.40586512927419 L 576.0000000000053 110.00889645114526 L 576.0000000000053 110.00889645114532 L 577.0000000000053 101.35219878055307 L 577.0000000000053 101.3521987805531 L 578.0000000000053 92.43577211749755 L 578.0000000000053 92.43577211749763 L 579.0000000000053 83.25961646197871 L 579.0000000000053 83.25961646197877 L 580.0000000000053 73.82373181399655 L 580.0000000000053 73.82373181399663 L 581.0000000000053 64.12811817355112 L 581.0000000000053 64.12811817355117 L 582.0000000000053 54.17277554064239 L 582.0000000000053 54.17277554064242 L 583.0000000000053 43.95770391527026 L 583.0000000000053 43.95770391527034 L 584.0000000000053 33.48290329743486 L 584.0000000000053 33.482903297434945 L 585.0000000000053 22.748373687136166 L 585.0000000000053 22.748373687136223 L 586.0000000000053 11.754115084374149 L 586.0000000000053 11.754115084374234 L 587.0000000000053 0.5001274891488094 L 587.0000000000053 0.5001274891488663 L 587.9119668188148 -10" stroke-opacity="0.8" stroke-linecap="round" stroke-linejoin="round" stroke-miterlimit="10" stroke-width="2.5"/><text fill="rgb(211,47,47)" stroke="none" font-family="geogebra-sans-serif, sans-serif" font-size="16px" font-style="normal" font-weight="normal" text-decoration="normal" x="500" y="24" text-anchor="start" dominant-baseline="alphabetic" fill-opacity="1">g</text><text fill="none" stroke="rgb(255,255,255)" font-family="geogebra-sans-serif, sans-serif" font-size="16px" font-style="normal" font-weight="normal" text-decoration="normal" x="500" y="24" text-anchor="start" dominant-baseline="alphabetic" stroke-opacity="1" stroke-linejoin="bevel" stroke-miterlimit="10" stroke-width="3">g</text><text fill="rgb(211,47,47)" stroke="none" font-family="geogebra-sans-serif, sans-serif" font-size="16px" font-style="normal" font-weight="normal" text-decoration="normal" x="500" y="24" text-anchor="start" dominant-baseline="alphabetic" fill-opacity="1">g</text><path fill="rgb(97,97,97)" stroke="none" paint-order="stroke fill markers" d=" M 548.1702681572463 249.97571974224428 C 548.1702681572463 252.73714349139826 545.9316919064003 254.97571974224428 543.1702681572463 254.97571974224428 C 540.4088444080922 254.97571974224428 538.1702681572463 252.73714349139826 538.1702681572463 249.97571974224428 C 538.1702681572463 247.2142959930903 540.4088444080922 244.97571974224428 543.1702681572463 244.97571974224428 C 545.9316919064003 244.97571974224428 548.1702681572463 247.2142959930903 548.1702681572463 249.97571974224428 Z" fill-opacity="1"/><path fill="none" stroke="rgb(0,0,0)" paint-order="fill stroke markers" d=" M 548.1702681572463 249.97571974224428 C 548.1702681572463 252.73714349139826 545.9316919064003 254.97571974224428 543.1702681572463 254.97571974224428 C 540.4088444080922 254.97571974224428 538.1702681572463 252.73714349139826 538.1702681572463 249.97571974224428 C 538.1702681572463 247.2142959930903 540.4088444080922 244.97571974224428 543.1702681572463 244.97571974224428 C 545.9316919064003 244.97571974224428 548.1702681572463 247.2142959930903 548.1702681572463 249.97571974224428 Z" stroke-opacity="1" stroke-linecap="round" stroke-linejoin="round" stroke-miterlimit="10"/><text fill="rgb(97,97,97)" stroke="none" font-family="geogebra-sans-serif, sans-serif" font-size="16px" font-style="normal" font-weight="normal" text-decoration="normal" x="547" y="240" text-anchor="start" dominant-baseline="alphabetic" fill-opacity="1">A</text><text fill="none" stroke="rgb(255,255,255)" font-family="geogebra-sans-serif, sans-serif" font-size="16px" font-style="normal" font-weight="normal" text-decoration="normal" x="547" y="240" text-anchor="start" dominant-baseline="alphabetic" stroke-opacity="1" stroke-linejoin="bevel" stroke-miterlimit="10" stroke-width="3">A</text><text fill="rgb(97,97,97)" stroke="none" font-family="geogebra-sans-serif, sans-serif" font-size="16px" font-style="normal" font-weight="normal" text-decoration="normal" x="547" y="240" text-anchor="start" dominant-baseline="alphabetic" fill-opacity="1">A</text></g></g></svg>