<?xml version="1.0" encoding="UTF-8"?>
<!DOCTYPE svg PUBLIC "-//W3C//DTD SVG 1.1//EN" "http://www.w3.org/Graphics/SVG/1.1/DTD/svg11.dtd">
<svg xmlns="http://www.w3.org/2000/svg" version="1.1" width="4000px" height="2400px" style="shape-rendering:geometricPrecision; text-rendering:geometricPrecision; image-rendering:optimizeQuality; fill-rule:evenodd; clip-rule:evenodd" xmlns:xlink="http://www.w3.org/1999/xlink">
<g><path style="opacity:1" fill="#303030" d="M 3185.5,1419.5 C 3185.42,1418.25 3184.76,1417.42 3183.5,1417C 3168.93,1416.82 3154.43,1416.32 3140,1415.5C 3135.67,1416.83 3131.33,1416.83 3127,1415.5C 3124.94,1416.23 3123.11,1417.23 3121.5,1418.5C 3040.92,1423.87 2976.09,1458.54 2927,1522.5C 2902.33,1555.15 2887,1591.82 2881,1632.5C 2878.97,1658.45 2876.64,1684.12 2874,1709.5C 2873.63,1710.42 2873.13,1711.25 2872.5,1712C 2869.52,1712.5 2866.52,1712.66 2863.5,1712.5C 2863.39,1711.88 2863.06,1711.38 2862.5,1711C 2820,1710.17 2777.66,1710.34 2735.5,1711.5C 2341.5,1711.5 1947.5,1711.5 1553.5,1711.5C 1498.5,1711.5 1443.5,1711.5 1388.5,1711.5C 1380.78,1711.24 1373.11,1711.74 1365.5,1713C 1366.06,1713.38 1366.39,1713.88 1366.5,1714.5C 1363.95,1715.39 1361.28,1715.72 1358.5,1715.5C 1359.66,1714.73 1360.66,1713.73 1361.5,1712.5C 1358.91,1711.52 1356.25,1711.19 1353.5,1711.5C 1353.5,1708.83 1353.5,1706.17 1353.5,1703.5C 1353.16,1697.47 1352.49,1691.47 1351.5,1685.5C 1351.67,1682.48 1352,1679.48 1352.5,1676.5C 1349.64,1653.53 1346.81,1630.53 1344,1607.5C 1341.81,1595.8 1338.48,1584.47 1334,1573.5C 1331.37,1568.29 1329.03,1562.95 1327,1557.5C 1321.41,1550.33 1317.41,1542.33 1315,1533.5C 1302.6,1516.1 1289.1,1499.6 1274.5,1484C 1268.92,1479.42 1263.58,1474.42 1258.5,1469C 1244.34,1457.08 1228.67,1447.41 1211.5,1440C 1203.87,1437.87 1196.21,1435.87 1188.5,1434C 1183.58,1432.54 1178.91,1430.54 1174.5,1428C 1167.67,1426.97 1161,1425.31 1154.5,1423C 1115.69,1418.14 1076.69,1416.47 1037.5,1418C 988.982,1421.72 945.316,1438.06 906.5,1467C 883.279,1486.55 862.446,1508.39 844,1532.5C 840.503,1539.5 836.503,1546.16 832,1552.5C 827.481,1561.04 823.148,1569.71 819,1578.5C 818.219,1584.85 815.885,1590.52 812,1595.5C 810.898,1599.42 810.231,1603.42 810,1607.5C 805.977,1613.92 803.644,1620.92 803,1628.5C 802.581,1629.67 801.915,1630.67 801,1631.5C 799.099,1644.24 796.766,1656.91 794,1669.5C 794.035,1682.86 792.535,1696.02 789.5,1709C 788.728,1710.22 787.728,1711.22 786.5,1712C 708.248,1713.66 629.915,1713.99 551.5,1713C 546.754,1710.59 542.254,1707.76 538,1704.5C 533.333,1694.5 528.667,1684.5 524,1674.5C 522.279,1666.23 520.946,1657.9 520,1649.5C 519.333,1604.83 519.333,1560.17 520,1515.5C 520.601,1512.36 521.601,1509.36 523,1506.5C 532.333,1497.83 541.667,1489.17 551,1480.5C 553.094,1478.08 554.76,1475.41 556,1472.5C 556.802,1239.67 556.635,1006.83 555.5,774C 555.653,745.791 556.82,717.625 559,689.5C 559.667,687.5 560.333,685.5 561,683.5C 562.03,652.147 567.53,621.647 577.5,592C 577.287,584.429 579.12,577.263 583,570.5C 583.528,566.057 584.528,561.723 586,557.5C 591.137,545.227 596.804,533.227 603,521.5C 604.558,519.641 606.391,518.141 608.5,517C 629.178,510.645 650.178,508.812 671.5,511.5C 692.765,512.444 714.099,512.444 735.5,511.5C 746.167,511.5 756.833,511.5 767.5,511.5C 772.651,512.327 777.984,512.827 783.5,513C 762.49,512.854 741.49,513.02 720.5,513.5C 802.831,514.333 885.165,514.833 967.5,515C 943.167,515.333 918.833,515.667 894.5,516C 921.167,516.667 947.833,516.667 974.5,516C 975.833,515.333 977.167,514.667 978.5,514C 977.944,513.617 977.611,513.117 977.5,512.5C 1002.33,511.303 1027.33,511.303 1052.5,512.5C 1055.5,516.7 1058.67,517.033 1062,513.5C 1062.33,514.167 1062.67,514.833 1063,515.5C 1064.4,514.884 1065.9,514.551 1067.5,514.5C 1075.61,515.701 1083.77,516.368 1092,516.5C 1099.33,516.464 1106.5,515.797 1113.5,514.5C 1113.83,515.167 1114.17,515.833 1114.5,516.5C 1115.19,515.975 1115.69,515.308 1116,514.5C 1117.2,515.471 1117.7,516.471 1117.5,517.5C 1119.43,516.448 1120.93,515.114 1122,513.5C 1179.63,514.311 1237.46,514.811 1295.5,515C 1300.66,516.145 1306,516.645 1311.5,516.5C 1324.67,515.055 1338.01,514.389 1351.5,514.5C 1362.34,514.277 1373,514.943 1383.5,516.5C 1385.83,516.167 1388.17,515.833 1390.5,515.5C 1391.13,514.583 1391.46,513.583 1391.5,512.5C 1397.17,512.5 1402.83,512.5 1408.5,512.5C 1439.83,513.833 1471.49,514.5 1503.5,514.5C 1535.51,514.5 1567.17,513.833 1598.5,512.5C 1679.45,511.943 1760.45,511.943 1841.5,512.5C 1856.08,512.727 1870.58,512.061 1885,510.5C 1891.18,511.088 1897.35,511.755 1903.5,512.5C 1914.15,512.671 1914.15,513.171 1903.5,514C 1930.17,514.333 1956.83,514.667 1983.5,515C 1967.5,515.333 1951.5,515.667 1935.5,516C 1948.67,516.167 1961.83,516.333 1975,516.5C 1992.16,515.602 2012.33,514.936 2035.5,514.5C 2050.17,514.667 2064.83,514.833 2079.5,515C 2082.14,516.118 2084.97,516.618 2088,516.5C 2101.17,515.479 2114,514.146 2126.5,512.5C 2131.48,512.336 2136.32,512.336 2141,512.5C 2141.75,511.874 2142.58,511.374 2143.5,511C 2277.85,510.539 2412.18,509.039 2546.5,506.5C 2569.16,507.992 2591.83,509.825 2614.5,512C 2620.77,513.484 2627.11,514.818 2633.5,516C 2659.68,516.399 2685.35,520.732 2710.5,529C 2730.92,532.022 2750.59,537.689 2769.5,546C 2782.89,549.129 2795.89,553.462 2808.5,559C 2887.15,630.983 2964.48,704.316 3040.5,779C 3103.73,837.561 3164.23,898.728 3222,962.5C 3246.73,986.558 3270.73,1011.22 3294,1036.5C 3351.03,1094.53 3408.86,1151.36 3467.5,1207C 3473.63,1212.47 3480.3,1217.14 3487.5,1221C 3491.86,1226.02 3496.86,1230.36 3502.5,1234C 3506.67,1238.83 3510.83,1243.67 3515,1248.5C 3520.75,1259 3526.75,1269.33 3533,1279.5C 3535.49,1288.81 3538.82,1297.81 3543,1306.5C 3547.12,1323.9 3551.45,1341.23 3556,1358.5C 3562.64,1413.98 3570.31,1469.31 3579,1524.5C 3582.47,1535.97 3589.97,1543.47 3601.5,1547C 3606,1550.84 3608.84,1555.67 3610,1561.5C 3610.56,1565.19 3611.23,1568.85 3612,1572.5C 3611.74,1608.15 3611.41,1643.82 3611,1679.5C 3608.66,1688.34 3604.16,1695.84 3597.5,1702C 3591.71,1704.39 3586.05,1707.06 3580.5,1710C 3574.05,1711.42 3567.55,1712.59 3561,1713.5C 3513.43,1713.01 3465.93,1712.17 3418.5,1711C 3414.59,1706.59 3413.59,1701.59 3415.5,1696C 3415.52,1692.37 3414.85,1688.87 3413.5,1685.5C 3413.97,1683.43 3414.63,1681.43 3415.5,1679.5C 3413.19,1674.15 3412.85,1668.65 3414.5,1663C 3414.28,1659.73 3413.61,1656.56 3412.5,1653.5C 3412.73,1651.81 3413.06,1650.14 3413.5,1648.5C 3411.85,1640.62 3411.01,1632.62 3411,1624.5C 3407.88,1610.13 3404.55,1595.8 3401,1581.5C 3395.13,1566.11 3388.47,1551.11 3381,1536.5C 3364.44,1511.26 3344.94,1488.43 3322.5,1468C 3310.38,1461.29 3298.05,1454.96 3285.5,1449C 3284.17,1447.33 3282.83,1445.67 3281.5,1444C 3269.71,1442.18 3258.71,1438.18 3248.5,1432C 3239.03,1431.8 3230.36,1429.13 3222.5,1424C 3218.85,1423.1 3215.18,1422.27 3211.5,1421.5C 3206.53,1422.56 3201.53,1422.73 3196.5,1422C 3193.17,1419.92 3189.5,1419.09 3185.5,1419.5 Z M 1784.5,1047.5 C 1784.5,981.167 1784.5,914.833 1784.5,848.5C 1784.08,832.118 1784.58,815.785 1786,799.5C 1789.4,791.772 1795.06,786.438 1803,783.5C 1803.41,783.957 1803.91,784.291 1804.5,784.5C 1867.2,783.197 1929.87,782.031 1992.5,781C 2040.17,780.833 2087.83,780.667 2135.5,780.5C 2187.18,780.361 2238.85,780.861 2290.5,782C 2300.79,786.29 2307.62,793.79 2311,804.5C 2312.32,898.527 2311.32,992.527 2308,1086.5C 2307.44,1088.73 2306.44,1090.73 2305,1092.5C 2300.93,1096.85 2296.76,1101.02 2292.5,1105C 2126.5,1105.67 1960.5,1105.67 1794.5,1105C 1791.47,1099.12 1788.31,1093.29 1785,1087.5C 1784.5,1074.17 1784.33,1060.84 1784.5,1047.5 Z M 2733.5,1086.5 C 2733.5,1041.5 2733.5,996.5 2733.5,951.5C 2733.5,950.833 2733.5,950.167 2733.5,949.5C 2733.52,911.685 2733.52,874.018 2733.5,836.5C 2735.65,831.999 2738.65,827.999 2742.5,824.5C 2745.97,823.989 2749.31,823.156 2752.5,822C 2823.86,821.176 2895.19,821.343 2966.5,822.5C 3011.82,865.986 3056.49,910.486 3100.5,956C 3126.64,980.476 3151.81,1005.98 3176,1032.5C 3180.62,1038.57 3183.12,1045.4 3183.5,1053C 3183.96,1069.28 3180.13,1084.45 3172,1098.5C 3170.83,1099.67 3169.67,1100.83 3168.5,1102C 3163.9,1103.32 3159.23,1104.32 3154.5,1105C 3018.17,1105.67 2881.83,1105.67 2745.5,1105C 2739.57,1099.94 2735.57,1093.78 2733.5,1086.5 Z M 3362.5,1250.5 C 3376.5,1253.79 3390.34,1257.46 3404,1261.5C 3404.41,1261.04 3404.91,1260.71 3405.5,1260.5C 3422.92,1263.13 3437.42,1271.13 3449,1284.5C 3462.73,1307.91 3476.07,1331.58 3489,1355.5C 3497.77,1376.86 3498.77,1398.53 3492,1420.5C 3491.17,1421.33 3490.33,1422.17 3489.5,1423C 3467.88,1425.93 3446.21,1426.6 3424.5,1425C 3420.88,1422.68 3417.38,1422.51 3414,1424.5C 3406.3,1420.48 3399.3,1415.48 3393,1409.5C 3383.28,1396.78 3373.95,1383.78 3365,1370.5C 3360.68,1346.62 3357.02,1322.62 3354,1298.5C 3353.46,1285.78 3354.13,1273.11 3356,1260.5C 3357.93,1256.97 3360.09,1253.63 3362.5,1250.5 Z"/></g>
<g><path style="opacity:1" fill="#292929" d="M 671.5,511.5 C 692.833,510.167 714.167,510.167 735.5,511.5C 714.099,512.444 692.765,512.444 671.5,511.5 Z"/></g>
<g><path style="opacity:1" fill="#2f3032" d="M 767.5,511.5 C 837.497,512.258 907.497,512.591 977.5,512.5C 977.611,513.117 977.944,513.617 978.5,514C 977.167,514.667 975.833,515.333 974.5,516C 947.833,516.667 921.167,516.667 894.5,516C 918.833,515.667 943.167,515.333 967.5,515C 885.165,514.833 802.831,514.333 720.5,513.5C 741.49,513.02 762.49,512.854 783.5,513C 777.984,512.827 772.651,512.327 767.5,511.5 Z"/></g>
<g><path style="opacity:1" fill="#2f3032" d="M 1391.5,512.5 C 1391.46,513.583 1391.13,514.583 1390.5,515.5C 1388.17,515.833 1385.83,516.167 1383.5,516.5C 1373,514.943 1362.34,514.277 1351.5,514.5C 1338.01,514.389 1324.67,515.055 1311.5,516.5C 1306,516.645 1300.66,516.145 1295.5,515C 1237.46,514.811 1179.63,514.311 1122,513.5C 1120.93,515.114 1119.43,516.448 1117.5,517.5C 1117.7,516.471 1117.2,515.471 1116,514.5C 1115.69,515.308 1115.19,515.975 1114.5,516.5C 1114.17,515.833 1113.83,515.167 1113.5,514.5C 1106.5,515.797 1099.33,516.464 1092,516.5C 1083.77,516.368 1075.61,515.701 1067.5,514.5C 1065.9,514.551 1064.4,514.884 1063,515.5C 1062.67,514.833 1062.33,514.167 1062,513.5C 1058.67,517.033 1055.5,516.7 1052.5,512.5C 1165.14,512.339 1278.14,512.339 1391.5,512.5 Z"/></g>
<g><path style="opacity:1" fill="#2f2f31" d="M 1408.5,512.5 C 1471.83,512.5 1535.17,512.5 1598.5,512.5C 1567.17,513.833 1535.51,514.5 1503.5,514.5C 1471.49,514.5 1439.83,513.833 1408.5,512.5 Z"/></g>
<g><path style="opacity:1" fill="#343436" d="M 1903.5,512.5 C 1977.73,511.257 2052.07,511.257 2126.5,512.5C 2114,514.146 2101.17,515.479 2088,516.5C 2084.97,516.618 2082.14,516.118 2079.5,515C 2064.83,514.833 2050.17,514.667 2035.5,514.5C 2012.33,514.936 1992.16,515.602 1975,516.5C 1961.83,516.333 1948.67,516.167 1935.5,516C 1951.5,515.667 1967.5,515.333 1983.5,515C 1956.83,514.667 1930.17,514.333 1903.5,514C 1914.15,513.171 1914.15,512.671 1903.5,512.5 Z"/></g>
<g><path style="opacity:1" fill="#2f2f34" d="M 2063.5,769.5 C 2068.87,769.172 2074.21,769.505 2079.5,770.5C 2076.83,770.833 2074.17,771.167 2071.5,771.5C 2068.41,771.478 2065.74,770.812 2063.5,769.5 Z"/></g>
<g><path style="opacity:1" fill="#302f33" d="M 2733.5,836.5 C 2733.52,874.018 2733.52,911.685 2733.5,949.5C 2732.5,949.5 2731.5,949.5 2730.5,949.5C 2732.03,939.284 2732.7,928.951 2732.5,918.5C 2730.71,896.017 2730.04,873.517 2730.5,851C 2730.67,846.833 2730.83,842.667 2731,838.5C 2731.67,837.167 2732.33,835.833 2733,834.5C 2733.46,835.094 2733.63,835.761 2733.5,836.5 Z"/></g>
<g><path style="opacity:1" fill="#302f32" d="M 1784.5,848.5 C 1784.5,914.833 1784.5,981.167 1784.5,1047.5C 1783.69,1049.63 1783.19,1051.96 1783,1054.5C 1782.6,1025.36 1781.76,996.358 1780.5,967.5C 1781.49,927.629 1782.83,887.962 1784.5,848.5 Z"/></g>
<g><path style="opacity:1" fill="#303032" d="M 2733.5,951.5 C 2733.5,996.5 2733.5,1041.5 2733.5,1086.5C 2731.59,1084.13 2730.42,1084.79 2730,1088.5C 2729.46,1081.43 2730.29,1074.43 2732.5,1067.5C 2731.53,1042.81 2731.53,1018.31 2732.5,994C 2732.58,991.244 2731.24,990.077 2728.5,990.5C 2727.99,986.97 2728.66,983.804 2730.5,981C 2729.48,980.481 2728.82,979.647 2728.5,978.5C 2730.61,975.312 2730.94,971.978 2729.5,968.5C 2729.84,965.964 2730.84,963.797 2732.5,962C 2729.38,960.579 2729.04,958.913 2731.5,957C 2730.17,956 2730.17,955 2731.5,954C 2729.84,953.275 2729.34,952.108 2730,950.5C 2730.67,953.167 2731.33,953.167 2732,950.5C 2732.38,951.056 2732.88,951.389 2733.5,951.5 Z"/></g>
<g><path style="opacity:1" fill="#37363a" d="M 3185.5,1419.5 C 3164.26,1417.21 3142.92,1416.87 3121.5,1418.5C 3123.11,1417.23 3124.94,1416.23 3127,1415.5C 3131.33,1416.83 3135.67,1416.83 3140,1415.5C 3154.43,1416.32 3168.93,1416.82 3183.5,1417C 3184.76,1417.42 3185.42,1418.25 3185.5,1419.5 Z"/></g>
<g><path style="opacity:1" fill="#2f2f2f" d="M 1057.5,1478.5 C 1137.11,1474.07 1201.28,1503.07 1250,1565.5C 1289.93,1623.41 1300.6,1686.41 1282,1754.5C 1260.9,1818.93 1219.4,1865.1 1157.5,1893C 1126.98,1902.96 1095.65,1908.12 1063.5,1908.5C 1021.41,1903.11 983.079,1888.28 948.5,1864C 882.169,1808.37 855.669,1737.54 869,1651.5C 885.03,1578.59 926.864,1526.42 994.5,1495C 1014.99,1486.8 1035.99,1481.3 1057.5,1478.5 Z M 1063.5,1576.5 C 1118.96,1573.3 1159.13,1596.3 1184,1645.5C 1201.61,1690.59 1195.61,1732.25 1166,1770.5C 1130.41,1808.03 1087.91,1819.2 1038.5,1804C 995.042,1786.2 969.875,1754.04 963,1707.5C 959.472,1648.36 984.639,1606.86 1038.5,1583C 1046.84,1580.33 1055.17,1578.17 1063.5,1576.5 Z"/></g>
<g><path style="opacity:1" fill="#2f2f2f" d="M 3130.5,1479.5 C 3220.01,1475.33 3288.18,1511 3335,1586.5C 3365.75,1643.39 3371.08,1702.72 3351,1764.5C 3322.47,1838.36 3269.64,1884.52 3192.5,1903C 3170.95,1906.94 3149.28,1908.27 3127.5,1907C 3079.71,1899.27 3037.71,1879.77 3001.5,1848.5C 2992.17,1837 2982.33,1826 2972,1815.5C 2970.3,1809.38 2967.3,1804.04 2963,1799.5C 2961.07,1796.05 2959.74,1792.39 2959,1788.5C 2956.94,1786.1 2955.27,1783.43 2954,1780.5C 2947.42,1758.6 2942.75,1736.27 2940,1713.5C 2937.01,1678.46 2941.84,1644.63 2954.5,1612C 2972.35,1567.44 3002.02,1532.44 3043.5,1507C 3070.93,1492.6 3099.93,1483.44 3130.5,1479.5 Z M 3132.5,1578.5 C 3188.97,1575.31 3229.47,1598.97 3254,1649.5C 3270.3,1693.73 3263.97,1734.39 3235,1771.5C 3197.13,1810.76 3152.63,1821.26 3101.5,1803C 3052.54,1779.27 3029.04,1740.1 3031,1685.5C 3035.89,1639.28 3059.39,1606.45 3101.5,1587C 3111.67,1583.04 3122,1580.21 3132.5,1578.5 Z"/></g>
<g><path style="opacity:1" fill="#2f2f2f" d="M 463.5,1586.5 C 463.5,1590.83 463.5,1595.17 463.5,1599.5C 373.833,1599.5 284.167,1599.5 194.5,1599.5C 194.5,1595.17 194.5,1590.83 194.5,1586.5C 284.167,1586.5 373.833,1586.5 463.5,1586.5 Z"/></g>
<g><path style="opacity:1" fill="#373737" d="M 463.5,1586.5 C 465.5,1586.5 467.5,1586.5 469.5,1586.5C 469.5,1590.83 469.5,1595.17 469.5,1599.5C 467.5,1599.5 465.5,1599.5 463.5,1599.5C 463.5,1595.17 463.5,1590.83 463.5,1586.5 Z"/></g>
<g><path style="opacity:1" fill="#2f2f2f" d="M 235.5,1626.5 C 313.167,1626.5 390.833,1626.5 468.5,1626.5C 468.5,1630.83 468.5,1635.17 468.5,1639.5C 392.184,1640.65 315.851,1640.82 239.5,1640C 238.444,1635.89 238.444,1631.72 239.5,1627.5C 237.901,1627.77 236.568,1627.43 235.5,1626.5 Z"/></g>
<g><path style="opacity:1" fill="#383838" d="M 235.5,1626.5 C 236.568,1627.43 237.901,1627.77 239.5,1627.5C 238.444,1631.72 238.444,1635.89 239.5,1640C 315.851,1640.82 392.184,1640.65 468.5,1639.5C 390.174,1641.5 311.507,1642.16 232.5,1641.5C 232.5,1636.5 232.5,1631.5 232.5,1626.5C 233.5,1626.5 234.5,1626.5 235.5,1626.5 Z"/></g>
<g><path style="opacity:1" fill="#373737" d="M 175.5,1670.5 C 175.5,1674.83 175.5,1679.17 175.5,1683.5C 173.5,1683.5 171.5,1683.5 169.5,1683.5C 169.5,1679.17 169.5,1674.83 169.5,1670.5C 171.5,1670.5 173.5,1670.5 175.5,1670.5 Z"/></g>
<g><path style="opacity:1" fill="#2f302f" d="M 175.5,1670.5 C 271.5,1670.5 367.5,1670.5 463.5,1670.5C 463.5,1674.83 463.5,1679.17 463.5,1683.5C 367.5,1683.5 271.5,1683.5 175.5,1683.5C 175.5,1679.17 175.5,1674.83 175.5,1670.5 Z"/></g>
<g><path style="opacity:1" fill="#373737" d="M 463.5,1670.5 C 465.5,1670.5 467.5,1670.5 469.5,1670.5C 469.5,1674.83 469.5,1679.17 469.5,1683.5C 467.5,1683.5 465.5,1683.5 463.5,1683.5C 463.5,1679.17 463.5,1674.83 463.5,1670.5 Z"/></g>
<g><path style="opacity:1" fill="#454344" d="M 1353.5,1703.5 C 1353.5,1706.17 1353.5,1708.83 1353.5,1711.5C 1353.5,1712.83 1353.5,1714.17 1353.5,1715.5C 1354.5,1715.5 1355.5,1715.5 1356.5,1715.5C 1355.43,1716.43 1354.1,1716.77 1352.5,1716.5C 1352.18,1711.97 1352.52,1707.63 1353.5,1703.5 Z"/></g>
<g><path style="opacity:1" fill="#33302e" d="M 2735.5,1711.5 C 2777.66,1710.34 2820,1710.17 2862.5,1711C 2863.06,1711.38 2863.39,1711.88 2863.5,1712.5C 2820.58,1711.54 2777.92,1711.2 2735.5,1711.5 Z"/></g>
<g><path style="opacity:1" fill="#3c3a35" d="M 1388.5,1711.5 C 1388.17,1712.17 1387.83,1712.83 1387.5,1713.5C 1380.82,1714.27 1373.82,1714.6 1366.5,1714.5C 1366.39,1713.88 1366.06,1713.38 1365.5,1713C 1373.11,1711.74 1380.78,1711.24 1388.5,1711.5 Z"/></g>
<g><path style="opacity:1" fill="#3f3d39" d="M 1388.5,1711.5 C 1443.5,1711.5 1498.5,1711.5 1553.5,1711.5C 1497.9,1712.46 1442.57,1713.13 1387.5,1713.5C 1387.83,1712.83 1388.17,1712.17 1388.5,1711.5 Z"/></g>
<g><path style="opacity:1" fill="#242020" d="M 1353.5,1711.5 C 1356.25,1711.19 1358.91,1711.52 1361.5,1712.5C 1360.66,1713.73 1359.66,1714.73 1358.5,1715.5C 1357.83,1715.5 1357.17,1715.5 1356.5,1715.5C 1355.5,1715.5 1354.5,1715.5 1353.5,1715.5C 1353.5,1714.17 1353.5,1712.83 1353.5,1711.5 Z"/></g>
</svg>
