<?xml version="1.0" encoding="UTF-8" standalone="no"?>
<svg
   xmlns:dc="http://purl.org/dc/elements/1.1/"
   xmlns:cc="http://creativecommons.org/ns#"
   xmlns:rdf="http://www.w3.org/1999/02/22-rdf-syntax-ns#"
   xmlns:svg="http://www.w3.org/2000/svg"
   xmlns="http://www.w3.org/2000/svg"
   xmlns:sodipodi="http://sodipodi.sourceforge.net/DTD/sodipodi-0.dtd"
   xmlns:inkscape="http://www.inkscape.org/namespaces/inkscape"
   inkscape:version="1.0 (4035a4fb49, 2020-05-01)"
   sodipodi:docname="oer_portal_logo_login_beta.svg"
   id="svg30"
   style="fill-rule:evenodd;clip-rule:evenodd;stroke-linejoin:round;stroke-miterlimit:2;"
   xml:space="preserve"
   version="1.1"
   viewBox="0 0 960 234"
   height="100%"
   width="100%"><metadata
     id="metadata36"><rdf:RDF><cc:Work
         rdf:about=""><dc:format>image/svg+xml</dc:format><dc:type
           rdf:resource="http://purl.org/dc/dcmitype/StillImage" /><dc:title /></cc:Work></rdf:RDF></metadata><defs
     id="defs34" /><sodipodi:namedview
     inkscape:document-rotation="0"
     inkscape:current-layer="g14"
     inkscape:window-maximized="0"
     inkscape:window-y="118"
     inkscape:window-x="3271"
     inkscape:cy="117"
     inkscape:cx="447.05882"
     inkscape:zoom="0.53125"
     showgrid="false"
     id="namedview32"
     inkscape:window-height="1256"
     inkscape:window-width="2043"
     inkscape:pageshadow="2"
     inkscape:pageopacity="0"
     guidetolerance="10"
     gridtolerance="10"
     objecttolerance="10"
     borderopacity="1"
     bordercolor="#666666"
     pagecolor="#ffffff" /><path
     d="M 0,0 H 960 V 233.185 H 0 Z"
     style="fill:none"
     id="Schriftzug_OER-Portal" /><clipPath
     id="_clip1"><rect
       id="rect3"
       height="233.185"
       width="960"
       y="0"
       x="0" /></clipPath><g
     id="g14"
     style="fill:#0a1f40;fill-opacity:1"><g
   style="font-weight:500;font-size:148.16px;font-family:LucidaGrande, 'Lucida Grande', sans-serif;fill:#0a1f40;fill-opacity:1"
   id="text8"
   aria-label="OER-Portal"><path
     id="path852"
     style="font-weight:500;font-size:148.16px;font-family:LucidaGrande, 'Lucida Grande', sans-serif;fill:#0a1f40;fill-opacity:1"
     d="m 50.702408,11.83687 q -15.915626,0 -25.320313,11.864375 -9.332344,11.864376 -9.332344,32.337657 0,20.400938 9.332344,32.265314 9.404687,11.864374 25.320313,11.864374 15.915625,0 25.175625,-11.864374 9.332344,-11.864376 9.332344,-32.265314 0,-20.473281 -9.332344,-32.337657 -9.26,-11.864375 -25.175625,-11.864375 z m 0,-11.86437516 q 22.715938,0 36.316563,15.26453116 13.600629,15.192188 13.600629,40.801876 0,25.537345 -13.600629,40.801876 -13.600625,15.192192 -36.316563,15.192192 -22.788282,0 -36.461251,-15.192192 Q 0.64053155,81.648591 0.64053155,56.038902 q 0,-25.609688 13.60062545,-40.801876 13.672969,-15.26453116 36.461251,-15.26453116 z" /><path
     id="path854"
     style="fill:#0a1f40;fill-opacity:1"
     d="m 121.58709,1.9257761 h 68.2925 V 14.224214 h -53.67906 v 31.975938 h 51.43641 V 58.49859 h -51.43641 v 39.13797 h 54.98125 V 109.935 h -69.59469 z" /><path
     id="path856"
     style="fill:#0a1f40;fill-opacity:1"
     d="m 252.84748,59.294371 q 4.70234,1.591563 9.11531,6.800313 4.48531,5.20875 8.97062,14.324063 L 285.76388,109.935 H 270.06529 L 256.24763,82.227341 Q 250.89419,71.375778 245.83013,67.830934 240.83841,64.28609 232.15716,64.28609 H 216.24154 V 109.935 H 201.6281 V 1.9257761 h 32.98875 q 18.52,0 27.63531,7.7407815 9.11532,7.7407814 9.11532,23.3670314 0,10.200469 -4.77469,16.928438 -4.70235,6.727969 -13.74531,9.332344 z M 216.24154,13.934839 v 38.342188 h 18.37531 q 10.56219,0 15.91563,-4.847031 5.42578,-4.919375 5.42578,-14.396407 0,-9.477031 -5.42578,-14.251719 -5.35344,-4.847031 -15.91563,-4.847031 z" /><path
     id="path858"
     style="fill:#0a1f40;fill-opacity:1"
     d="m 287.70236,63.417965 h 38.99328 V 75.28234 h -38.99328 z" /><path
     id="path860"
     style="fill:#0a1f40;fill-opacity:1"
     d="m 395.07152,13.934839 v 40.584845 h 18.37532 q 10.20047,0 15.77094,-5.281094 5.57046,-5.281094 5.57046,-15.047501 0,-9.694062 -5.57046,-14.975156 -5.57047,-5.281094 -15.77094,-5.281094 z M 380.45809,1.9257761 h 32.98875 q 18.15828,0 27.41828,8.2471879 9.33234,8.174844 9.33234,24.018125 0,15.98797 -9.33234,24.162814 -9.26,8.174843 -27.41828,8.174843 H 395.07152 V 109.935 h -14.61343 z" /><path
     id="path862"
     style="fill:#0a1f40;fill-opacity:1"
     d="m 492.90354,38.24234 q -10.70688,0 -16.92844,8.391875 -6.22156,8.319531 -6.22156,22.860625 0,14.541094 6.14922,22.93297 6.22156,8.31953 17.00078,8.31953 10.63453,0 16.85609,-8.391874 6.22157,-8.391875 6.22157,-22.860626 0,-14.396406 -6.22157,-22.788282 -6.22156,-8.464218 -16.85609,-8.464218 z m 0,-11.285626 q 17.3625,0 27.27359,11.285626 9.9111,11.285625 9.9111,31.2525 0,19.894532 -9.9111,31.2525 -9.91109,11.28563 -27.27359,11.28563 -17.43485,0 -27.34594,-11.28563 -9.83875,-11.357968 -9.83875,-31.2525 0,-19.966875 9.83875,-31.2525 9.91109,-11.285626 27.34594,-11.285626 z" /><path
     id="path864"
     style="fill:#0a1f40;fill-opacity:1"
     d="m 599.17046,41.353121 q -2.24266,-1.302188 -4.91938,-1.880938 -2.60437,-0.651093 -5.7875,-0.651093 -11.28562,0 -17.3625,7.379062 -6.00453,7.306719 -6.00453,21.052032 V 109.935 H 551.71296 V 28.909996 h 13.38359 v 12.587812 q 4.19594,-7.379062 10.92391,-10.923906 6.72797,-3.617188 16.34969,-3.617188 1.37453,0 3.03843,0.217032 1.66391,0.144687 3.68953,0.506406 z" /><path
     id="path866"
     style="fill:#0a1f40;fill-opacity:1"
     d="M 625.81293,5.9046825 V 28.909996 h 27.41828 v 10.345156 h -27.41828 v 43.985001 q 0,9.911094 2.67672,12.7325 2.74906,2.821407 11.06859,2.821407 h 13.67297 V 109.935 h -13.67297 q -15.40922,0 -21.26906,-5.71516 -5.85985,-5.787499 -5.85985,-20.979687 V 39.255152 h -9.7664 V 28.909996 h 9.7664 V 5.9046825 Z" /><path
     id="path868"
     style="fill:#0a1f40;fill-opacity:1"
     d="m 704.70432,69.205465 q -16.13266,0 -22.35422,3.689532 -6.22156,3.689531 -6.22156,12.587812 0,7.089688 4.63,11.285626 4.70234,4.123595 12.7325,4.123595 11.06859,0 17.72422,-7.813127 6.72797,-7.885469 6.72797,-20.907344 V 69.205465 Z M 731.25448,63.70734 V 109.935 H 717.94323 V 97.63656 q -4.55766,7.37906 -11.35797,10.92391 -6.80032,3.4725 -16.63907,3.4725 -12.44312,0 -19.82218,-6.945 -7.30672,-7.017348 -7.30672,-18.737036 0,-13.672969 9.11531,-20.617969 9.18766,-6.945 27.34594,-6.945 h 18.66469 v -1.302187 q 0,-9.187657 -6.07688,-14.179376 -6.00453,-5.064062 -16.92844,-5.064062 -6.945,0 -13.52828,1.663906 -6.58328,1.663906 -12.66015,4.991719 V 32.599527 q 7.30671,-2.821406 14.17937,-4.195938 6.87266,-1.446875 13.38359,-1.446875 17.57954,0 26.26079,9.115313 8.68125,9.115313 8.68125,27.635313 z" /><path
     id="path870"
     style="fill:#0a1f40;fill-opacity:1"
     d="m 749.43634,-2.6318802 h 13.31125 V 109.935 h -13.31125 z" /></g>
<g
   style="font-weight:300;font-size:98.57px;font-family:JosefinSans-Light, 'Josefin Sans';fill:#0a1f40;fill-opacity:1"
   id="text12"
   aria-label="Niedersachsen"><path
     id="path873"
     style="font-weight:300;font-size:98.57px;font-family:JosefinSans-Light, 'Josefin Sans';fill:#0a1f40;fill-opacity:1"
     d="m 25.388211,159.65109 h 7.123222 l 34.846035,65.69729 v -65.69729 h 4.812989 V 231.509 H 65.336013 L 30.297459,165.37854 V 231.509 h -4.909248 z" /><path
     id="path875"
     style="fill:#0a1f40;fill-opacity:1"
     d="m 121.78987,177.60353 h 4.42795 V 231.509 h -4.42795 z m 0,-20.98462 h 4.42795 v 6.06436 h -4.42795 z" /><path
     id="path877"
     style="fill:#0a1f40;fill-opacity:1"
     d="m 202.51552,202.34229 v 2.79154 h -40.9104 q 0,12.99507 5.05364,18.19309 5.58306,5.77559 16.60481,5.77559 2.88779,0 7.65265,-1.25138 4.81299,-1.25138 9.52972,-3.75413 v 4.6686 q -4.76486,2.02145 -9.77037,3.08031 -5.00551,1.05886 -7.94143,1.05886 -12.46564,0 -18.77065,-6.73818 -6.83445,-7.17136 -6.83445,-21.03276 0,-14.39084 6.25689,-21.46593 6.40127,-7.36387 17.80805,-7.36387 10.58858,0 15.97912,6.97883 5.34242,7.31574 5.34242,19.05943 z m -4.47608,-0.96259 q 0,-11.35866 -5.10177,-16.55668 -4.28356,-4.62047 -11.64743,-4.62047 -8.03769,0 -13.47636,4.81299 -5.00551,4.47608 -6.01624,16.36416 z" /><path
     id="path879"
     style="fill:#0a1f40;fill-opacity:1"
     d="m 264.07799,189.92478 v -33.30587 h 4.33169 V 231.509 h -4.33169 v -12.22499 q -3.03218,7.02697 -6.59379,9.62598 -5.43868,3.99478 -10.25167,3.99478 -9.57784,0 -15.93099,-7.79704 -6.35314,-7.79704 -6.35314,-20.50333 0,-12.70629 6.35314,-20.50333 6.35315,-7.79704 15.93099,-7.79704 4.81299,0 10.25167,3.99478 3.56161,2.59901 6.59379,9.62597 z m -28.87793,-4.09104 q -5.58306,5.6312 -5.58306,18.77066 0,13.13946 5.58306,18.77065 5.53494,5.6312 11.69556,5.6312 6.01624,0 11.59931,-5.6312 5.53493,-5.63119 5.53493,-18.77065 0,-13.13946 -5.53493,-18.77066 -5.58307,-5.63119 -11.59931,-5.63119 -6.16062,0 -11.69556,5.63119 z" /><path
     id="path881"
     style="fill:#0a1f40;fill-opacity:1"
     d="m 338.59151,202.34229 v 2.79154 h -40.9104 q 0,12.99507 5.05364,18.19309 5.58306,5.77559 16.60481,5.77559 2.88779,0 7.65265,-1.25138 4.81299,-1.25138 9.52971,-3.75413 v 4.6686 q -4.76485,2.02145 -9.77036,3.08031 -5.00551,1.05886 -7.94143,1.05886 -12.46564,0 -18.77066,-6.73818 -6.83444,-7.17136 -6.83444,-21.03276 0,-14.39084 6.25689,-21.46593 6.40127,-7.36387 17.80805,-7.36387 10.58858,0 15.97912,6.97883 5.34242,7.31574 5.34242,19.05943 z m -4.47608,-0.96259 q 0,-11.35866 -5.10177,-16.55668 -4.28356,-4.62047 -11.64743,-4.62047 -8.03769,0 -13.47637,4.81299 -5.0055,4.47608 -6.01623,16.36416 z" /><path
     id="path883"
     style="fill:#0a1f40;fill-opacity:1"
     d="m 390.19109,181.40579 q -1.05885,-0.52942 -2.88779,-0.91446 -1.63641,-0.28878 -4.13917,-0.28878 -8.18208,0 -13.57262,6.06436 -4.23543,4.90925 -4.23543,16.84546 V 231.509 h -4.33169 v -53.90547 h 4.33169 v 10.10728 q 2.16584,-4.33169 6.06436,-7.31574 5.39055,-4.09104 12.70629,-4.09104 1.87707,0 3.27283,0.14439 1.4439,0 2.79153,0.33691 z" /><path
     id="path885"
     style="fill:#0a1f40;fill-opacity:1"
     d="m 441.55047,179.19182 v 4.86112 q -4.6686,-2.59902 -5.82371,-2.88779 -3.36909,-0.81821 -8.3746,-0.9626 -7.60452,0 -11.93621,3.03218 -3.32096,2.50275 -3.32096,8.56712 0,4.09104 3.12844,6.40127 3.32096,2.50276 9.48158,3.85039 l 3.03219,0.67382 q 7.65265,1.68455 11.5993,4.76486 4.57234,3.51348 4.81299,9.14468 0,7.65265 -4.52421,11.98434 -4.81299,4.28356 -15.49782,4.28356 -5.96811,0 -9.04842,-0.81821 -3.706,-1.05886 -7.79704,-2.55088 v -5.53494 q 5.87184,3.36909 7.60452,3.85039 4.76486,1.25138 9.43346,1.25138 7.79704,0 11.50304,-3.2247 3.75413,-3.27284 3.75413,-8.56712 0,-4.42795 -2.50276,-6.44941 -3.60974,-2.88779 -11.50304,-4.71673 l -3.08031,-0.72194 q -6.78631,-1.58829 -10.34792,-4.47608 -4.47608,-3.60974 -4.47608,-8.75964 0,-8.47086 5.39054,-12.17686 5.39055,-3.706 13.23572,-3.706 6.69005,0 9.24094,0.72195 3.08031,0.86633 6.01623,2.16584 z" /><path
     id="path887"
     style="fill:#0a1f40;fill-opacity:1"
     d="m 485.26033,201.09092 q -10.68483,0 -15.40156,3.80226 -4.71673,3.80226 -4.71673,11.118 0,7.12322 3.89852,10.10728 3.89852,2.98405 9.24094,2.98405 10.10728,0 14.53522,-8.56712 4.47608,-8.56712 4.47608,-16.12351 v -3.32096 z m 16.50855,-0.33691 V 231.509 h -4.37982 v -14.63148 q -3.706,10.73296 -9.81849,13.66889 -4.86112,2.35836 -9.67411,2.35836 -8.03769,0 -12.65816,-4.28356 -4.62047,-4.33169 -4.62047,-12.70629 0,-8.3746 6.01624,-13.38011 6.01623,-5.05363 19.68512,-5.05363 h 10.97361 v -0.86634 q 0,-7.17135 -4.09104,-11.79182 -4.04291,-4.62047 -13.3801,-4.62047 -4.62047,0 -9.43346,1.73267 -3.08031,1.10699 -7.98956,4.47608 v -4.76486 q 4.28356,-2.64714 7.98956,-3.75413 5.39055,-1.58828 10.34792,-1.58828 9.52972,0 15.69035,5.77558 5.34241,4.95738 5.34241,18.6744 z" /><path
     id="path889"
     style="fill:#0a1f40;fill-opacity:1"
     d="m 572.04177,180.20255 v 4.71673 q -3.99478,-2.45463 -6.59379,-3.32097 -4.47608,-1.39576 -8.56712,-1.39576 -11.64743,0 -16.70107,5.9681 -5.05364,5.96811 -5.05364,18.43375 0,12.5619 5.05364,18.53 5.05364,5.96811 16.70107,5.96811 3.85039,0 7.60452,-1.05886 3.80226,-1.01073 7.55639,-3.08031 v 4.47608 q -3.706,1.73267 -7.65265,2.59901 -3.99478,0.86634 -7.8933,0.86634 -11.83995,0 -18.81878,-6.40128 -6.97883,-6.4494 -6.97883,-21.89909 0,-15.44969 6.97883,-21.8991 6.97883,-6.40127 18.81878,-6.40127 3.85039,0 8.18208,1.10698 4.33169,1.05886 7.36387,2.79154 z" /><path
     id="path891"
     style="fill:#0a1f40;fill-opacity:1"
     d="m 634.89201,198.9732 v 32.5358 h -4.42795 v -32.24702 q 0,-10.39605 -3.51348,-14.72774 -3.51348,-4.33169 -10.63671,-4.33169 -8.18208,0 -12.94693,4.81299 -4.76486,4.81298 -4.76486,16.02725 V 231.509 h -4.42795 v -74.89009 h 4.42795 v 30.94751 q 1.54015,-4.13917 5.4868,-7.36387 4.71673,-3.89852 13.28385,-3.89852 7.98956,0 12.75442,5.72745 4.76486,5.77559 4.76486,16.94172 z" /><path
     id="path893"
     style="fill:#0a1f40;fill-opacity:1"
     d="m 691.49847,179.19182 v 4.86112 q -4.6686,-2.59902 -5.82371,-2.88779 -3.3691,-0.81821 -8.3746,-0.9626 -7.60453,0 -11.93621,3.03218 -3.32097,2.50275 -3.32097,8.56712 0,4.09104 3.12845,6.40127 3.32096,2.50276 9.48158,3.85039 l 3.03219,0.67382 q 7.65265,1.68455 11.5993,4.76486 4.57234,3.51348 4.81299,9.14468 0,7.65265 -4.52421,11.98434 -4.81299,4.28356 -15.49783,4.28356 -5.9681,0 -9.04841,-0.81821 -3.706,-1.05886 -7.79704,-2.55088 v -5.53494 q 5.87184,3.36909 7.60452,3.85039 4.76485,1.25138 9.43345,1.25138 7.79704,0 11.50305,-3.2247 3.75413,-3.27284 3.75413,-8.56712 0,-4.42795 -2.50276,-6.44941 -3.60974,-2.88779 -11.50304,-4.71673 l -3.08031,-0.72194 q -6.78632,-1.58829 -10.34793,-4.47608 -4.47608,-3.60974 -4.47608,-8.75964 0,-8.47086 5.39055,-12.17686 5.39055,-3.706 13.23572,-3.706 6.69005,0 9.24094,0.72195 3.08031,0.86633 6.01623,2.16584 z" /><path
     id="path895"
     style="fill:#0a1f40;fill-opacity:1"
     d="m 755.66454,202.34229 v 2.79154 h -40.9104 q 0,12.99507 5.05364,18.19309 5.58306,5.77559 16.60481,5.77559 2.88779,0 7.65265,-1.25138 4.81298,-1.25138 9.52971,-3.75413 v 4.6686 q -4.76485,2.02145 -9.77036,3.08031 -5.00551,1.05886 -7.94143,1.05886 -12.46564,0 -18.77066,-6.73818 -6.83444,-7.17136 -6.83444,-21.03276 0,-14.39084 6.25688,-21.46593 6.40128,-7.36387 17.80806,-7.36387 10.58857,0 15.97912,6.97883 5.34242,7.31574 5.34242,19.05943 z m -4.47608,-0.96259 q 0,-11.35866 -5.10177,-16.55668 -4.28356,-4.62047 -11.64743,-4.62047 -8.03769,0 -13.47637,4.81299 -5.0055,4.47608 -6.01623,16.36416 z" /><path
     id="path897"
     style="fill:#0a1f40;fill-opacity:1"
     d="m 818.718,198.9732 v 32.5358 h -4.42795 v -32.24702 q 0,-10.49231 -3.36909,-14.77587 -3.36909,-4.28356 -9.91476,-4.28356 -7.65265,0 -13.09133,4.62047 -5.4868,4.6686 -5.4868,16.21977 V 231.509 h -4.42795 v -53.90547 h 4.42795 v 10.10728 q 2.35836,-4.90925 6.20875,-7.50826 5.67933,-3.89852 12.5619,-3.89852 7.98956,0 12.75442,5.43867 4.76486,5.39055 4.76486,17.2305 z" /></g>
</g><g
     id="g26"
     style="fill:#f38c3e;fill-opacity:1"><path
       d="m 846.886,31.931 c 1.735,0.807 3.086,1.86 4.052,3.163 0.972,1.303 1.46,2.81 1.46,4.519 0,3.352 -1.102,5.817 -3.294,7.392 -2.192,1.568 -4.936,2.356 -8.219,2.356 H 829.912 V 16.294 h 9.674 c 3.497,0 6.24,0.708 8.24,2.131 2,1.423 3.003,3.482 3.003,6.182 0,1.647 -0.343,3.091 -1.029,4.332 -0.691,1.245 -1.657,2.241 -2.914,2.992 z m -10.48,-2.111 h 3.944 c 1.195,0 2.119,-0.371 2.774,-1.106 0.66,-0.729 0.987,-1.636 0.987,-2.715 0,-1.11 -0.374,-1.955 -1.122,-2.539 -0.743,-0.583 -1.777,-0.875 -3.086,-0.875 h -3.497 z m 4.167,13.473 c 1.522,0 2.754,-0.302 3.694,-0.917 0.94,-0.615 1.413,-1.538 1.413,-2.763 0,-2.34 -1.854,-3.507 -5.554,-3.507 h -3.72 v 7.187 z"
       style="fill:#f38c3e;fill-rule:nonzero;fill-opacity:1"
       id="path16"
       inkscape:connector-curvature="0" /><path
       d="m 882.266,16.294 v 6.291 H 866.28 v 7.052 h 14.147 v 6.291 H 866.28 v 7.141 h 16.615 v 6.292 H 859.786 V 16.294 Z"
       style="fill:#f38c3e;fill-rule:nonzero;fill-opacity:1"
       id="path18"
       inkscape:connector-curvature="0" /><path
       d="m 910.477,16.294 v 6.291 h -8.016 v 26.776 h -6.489 V 22.585 h -7.705 v -6.291 z"
       style="fill:#f38c3e;fill-rule:nonzero;fill-opacity:1"
       id="path20"
       inkscape:connector-curvature="0" /><path
       d="m 931.259,42.892 h -10.926 l -2.686,6.469 h -6.406 L 926.11,14.99 h 0.359 l 14.864,34.371 h -7.523 z m -2.151,-5.483 -3.179,-8.043 -3.315,8.043 z"
       style="fill:#f38c3e;fill-rule:nonzero;fill-opacity:1"
       id="path22"
       inkscape:connector-curvature="0" /><path
       d="m 941.297,0.266 h 0.384 l 0.39,0.015 0.384,0.026 0.385,0.032 0.379,0.041 0.379,0.052 0.379,0.063 0.374,0.073 0.375,0.078 0.368,0.089 0.369,0.099 0.369,0.104 0.359,0.115 0.363,0.125 0.354,0.135 0.353,0.141 0.348,0.151 0.348,0.157 0.343,0.166 0.338,0.178 0.332,0.182 0.327,0.193 0.328,0.203 0.317,0.209 0.317,0.213 0.311,0.224 0.307,0.235 0.296,0.24 0.296,0.25 0.291,0.255 0.281,0.261 0.275,0.271 0.27,0.281 0.265,0.282 0.255,0.292 0.249,0.292 0.239,0.302 0.229,0.308 0.223,0.307 0.218,0.318 0.208,0.323 0.198,0.323 0.192,0.334 0.187,0.334 0.171,0.338 0.166,0.344 0.162,0.344 0.15,0.355 0.14,0.349 0.13,0.36 0.125,0.359 0.114,0.365 0.109,0.365 0.099,0.37 0.088,0.375 0.078,0.376 0.068,0.375 0.062,0.381 0.052,0.38 0.042,0.381 0.036,0.385 0.021,0.386 0.016,0.386 0.005,0.391 v 33.703 l -0.016,0.39 -0.021,0.386 -0.036,0.386 -0.042,0.38 -0.051,0.381 -0.063,0.38 -0.067,0.376 -0.078,0.375 -0.089,0.37 -0.098,0.37 -0.109,0.37 -0.115,0.36 -0.124,0.365 -0.13,0.354 -0.141,0.355 -0.15,0.349 -0.161,0.349 -0.167,0.344 -0.171,0.339 -0.187,0.333 -0.192,0.329 -0.198,0.328 -0.208,0.318 -0.218,0.318 -0.223,0.313 -0.229,0.307 -0.239,0.297 -0.249,0.298 -0.255,0.291 -0.265,0.282 -0.27,0.276 -0.275,0.271 -0.281,0.266 -0.291,0.255 -0.296,0.251 -0.296,0.239 -0.306,0.23 -0.312,0.224 -0.317,0.219 -0.317,0.208 -0.327,0.198 -0.328,0.193 -0.332,0.188 -0.338,0.172 -0.343,0.167 -0.348,0.161 -0.348,0.151 -0.353,0.141 -0.354,0.13 -0.363,0.126 -0.359,0.114 -0.369,0.11 -0.368,0.099 -0.369,0.088 -0.374,0.078 -0.374,0.068 -0.38,0.063 -0.379,0.052 -0.379,0.042 -0.385,0.036 -0.384,0.021 -0.39,0.016 H 830.12 l -0.384,-0.006 -0.39,-0.015 -0.385,-0.021 -0.379,-0.037 -0.384,-0.041 -0.38,-0.052 -0.379,-0.063 -0.374,-0.068 -0.374,-0.078 -0.369,-0.089 -0.369,-0.099 -0.363,-0.109 -0.364,-0.115 -0.364,-0.125 -0.353,-0.13 -0.353,-0.141 -0.348,-0.151 -0.348,-0.162 -0.343,-0.166 -0.338,-0.172 -0.333,-0.188 -0.327,-0.193 -0.327,-0.198 -0.317,-0.208 -0.317,-0.219 -0.312,-0.224 -0.306,-0.23 -0.296,-0.24 -0.297,-0.25 -0.291,-0.255 -0.28,-0.266 -0.275,-0.271 -0.271,-0.276 -0.265,-0.282 -0.254,-0.292 -0.25,-0.297 -0.239,-0.297 -0.228,-0.307 -0.224,-0.313 -0.218,-0.318 -0.208,-0.318 -0.197,-0.328 -0.192,-0.329 -0.187,-0.333 -0.172,-0.339 -0.166,-0.344 -0.161,-0.349 -0.151,-0.35 -0.14,-0.354 -0.13,-0.355 -0.125,-0.364 -0.114,-0.36 -0.109,-0.37 -0.099,-0.37 -0.088,-0.37 -0.078,-0.376 -0.067,-0.375 -0.063,-0.38 -0.052,-0.381 -0.041,-0.38 -0.037,-0.386 -0.02,-0.386 -0.016,-0.391 V 15.788 l 0.005,-0.401 0.016,-0.397 0.026,-0.396 0.031,-0.396 0.047,-0.391 0.052,-0.385 0.067,-0.386 0.073,-0.381 0.078,-0.375 0.093,-0.375 0.099,-0.37 0.109,-0.365 0.12,-0.365 0.124,-0.36 0.135,-0.354 0.141,-0.349 0.15,-0.344 0.161,-0.344 0.167,-0.334 0.176,-0.334 0.182,-0.328 0.187,-0.323 0.198,-0.318 0.207,-0.313 0.213,-0.307 0.219,-0.303 0.223,-0.297 0.234,-0.286 0.244,-0.287 0.244,-0.276 0.255,-0.277 0.26,-0.265 0.265,-0.261 0.27,-0.25 0.28,-0.25 0.281,-0.24 0.291,-0.235 0.296,-0.229 0.301,-0.219 0.307,-0.214 0.306,-0.203 0.317,-0.198 0.322,-0.193 0.328,-0.182 0.332,-0.172 0.338,-0.172 0.338,-0.157 0.348,-0.151 0.348,-0.146 0.353,-0.135 0.358,-0.125 0.359,-0.115 0.369,-0.11 0.369,-0.104 0.369,-0.088 0.379,-0.084 0.379,-0.073 0.385,-0.062 0.384,-0.053 0.39,-0.046 0.389,-0.037 0.395,-0.026 0.395,-0.01 0.4,-0.006 H 941.307 Z M 830.084,8.084 h -0.26 l -0.26,0.005 -0.192,0.011 -0.177,0.015 -0.161,0.021 -0.171,0.026 -0.244,0.042 -0.151,0.026 -0.203,0.047 -0.234,0.052 -0.098,0.031 -0.198,0.058 -0.182,0.057 -0.161,0.057 -0.228,0.089 -0.177,0.073 -0.166,0.073 -0.099,0.047 -0.208,0.109 -0.228,0.11 -0.031,0.021 -0.193,0.119 -0.207,0.126 -0.156,0.104 -0.146,0.099 -0.13,0.099 -0.181,0.135 -0.12,0.099 -0.156,0.131 -0.208,0.182 -0.181,0.188 -0.151,0.151 -0.213,0.235 -0.099,0.125 -0.213,0.255 -0.031,0.037 -0.234,0.338 -0.088,0.136 -0.156,0.255 -0.114,0.177 -0.021,0.042 -0.099,0.188 -0.093,0.187 -0.032,0.068 -0.077,0.193 -0.125,0.297 -0.078,0.203 -0.031,0.079 -0.063,0.208 -0.067,0.214 -0.021,0.078 -0.052,0.219 -0.047,0.208 -0.02,0.11 -0.032,0.229 -0.036,0.24 -0.026,0.245 -0.01,0.104 -0.006,0.115 -0.015,0.391 -0.01,0.266 v 33.145 l 0.01,0.24 0.015,0.385 0.006,0.099 0.01,0.099 0.042,0.376 0.005,0.083 0.047,0.235 0.031,0.224 0.021,0.078 0.052,0.235 0.025,0.099 0.063,0.198 0.109,0.338 0.031,0.099 0.031,0.079 0.13,0.333 0.073,0.167 0.031,0.073 0.114,0.224 0.094,0.198 0.031,0.052 0.114,0.188 0.182,0.297 0.094,0.151 0.026,0.047 0.135,0.177 0.13,0.178 0.072,0.088 0.198,0.23 0.114,0.135 0.088,0.094 0.198,0.203 0.192,0.193 0.218,0.182 0.161,0.141 0.068,0.058 0.151,0.109 0.218,0.156 0.213,0.152 0.098,0.062 0.151,0.094 0.104,0.062 0.229,0.12 0.213,0.115 0.109,0.052 0.234,0.11 0.161,0.067 0.114,0.047 0.229,0.084 0.181,0.062 0.167,0.052 0.155,0.047 0.198,0.052 0.203,0.052 0.176,0.032 0.182,0.036 0.208,0.031 0.223,0.037 0.099,0.01 0.244,0.016 0.239,0.021 h 111.868 l 0.462,-0.037 0.088,-0.01 0.478,-0.073 0.296,-0.057 0.468,-0.12 0.13,-0.037 0.161,-0.052 0.234,-0.078 0.135,-0.047 0.151,-0.068 0.171,-0.067 0.39,-0.193 0.166,-0.084 0.156,-0.083 0.161,-0.099 0.223,-0.136 0.109,-0.067 0.296,-0.209 0.349,-0.276 0.098,-0.084 0.135,-0.119 0.208,-0.193 0.135,-0.131 0.063,-0.062 0.27,-0.302 0.254,-0.318 0.265,-0.355 0.099,-0.151 0.104,-0.151 0.052,-0.084 0.104,-0.187 0.15,-0.271 0.047,-0.084 0.192,-0.422 0.078,-0.172 0.032,-0.083 0.072,-0.204 0.083,-0.234 0.021,-0.073 0.114,-0.427 0.104,-0.454 0.016,-0.083 0.073,-0.459 0.01,-0.094 0.036,-0.485 v -34 l -0.02,-0.239 -0.016,-0.235 -0.01,-0.099 -0.037,-0.24 -0.036,-0.224 -0.016,-0.083 -0.046,-0.219 -0.058,-0.235 -0.057,-0.213 -0.057,-0.209 -0.031,-0.099 -0.073,-0.214 -0.062,-0.177 -0.031,-0.073 -0.104,-0.229 -0.14,-0.323 -0.021,-0.047 -0.047,-0.073 -0.182,-0.339 -0.088,-0.156 -0.177,-0.266 -0.099,-0.157 -0.109,-0.146 -0.135,-0.177 -0.109,-0.141 -0.145,-0.172 -0.151,-0.172 -0.119,-0.135 -0.063,-0.063 -0.135,-0.13 -0.166,-0.156 L 946.409,9.997 946.227,9.841 946.056,9.705 945.92,9.601 945.77,9.491 945.671,9.424 945.515,9.325 945.292,9.189 945.074,9.064 944.918,8.975 944.809,8.918 944.648,8.84 944.481,8.762 944.248,8.663 944.029,8.574 943.962,8.548 943.79,8.491 943.567,8.418 943.37,8.36 943.203,8.319 942.969,8.261 942.741,8.209 942.673,8.199 942.528,8.173 942.268,8.141 942.039,8.115 941.884,8.1 941.712,8.089 941.478,8.084 941.224,8.079 h -111.14 z"
       style="fill:#f38c3e;fill-opacity:1"
       id="path24"
       inkscape:connector-curvature="0" /></g></svg>
