<?xml version="1.0" encoding="UTF-8" standalone="no"?>
<!DOCTYPE svg PUBLIC "-//W3C//DTD SVG 1.1//EN" "http://www.w3.org/Graphics/SVG/1.1/DTD/svg11.dtd">
<svg width="100%" height="100%" viewBox="0 0 960 234" version="1.1" xmlns="http://www.w3.org/2000/svg" xmlns:xlink="http://www.w3.org/1999/xlink" xml:space="preserve" xmlns:serif="http://www.serif.com/" style="fill-rule:evenodd;clip-rule:evenodd;stroke-linejoin:round;stroke-miterlimit:2;"><rect id="Schriftzug_OER-Portal" x="0" y="0" width="960" height="233.185" style="fill:none;"/><clipPath id="_clip1"><rect x="0" y="0" width="960" height="233.185"/></clipPath><g clip-path="url(#_clip1)"><g><g><path d="M49.07,112.611c-14.806,0 -26.716,-5.148 -35.73,-15.445c-9.013,-10.297 -13.52,-23.91 -13.52,-40.838c0,-17.025 4.531,-30.638 13.593,-40.838c9.061,-10.201 21.163,-15.301 36.306,-15.301c15.095,0 27.185,5.088 36.271,15.265c9.086,10.176 13.629,23.753 13.629,40.729c0,17.315 -4.543,31.048 -13.629,41.2c-9.086,10.152 -21.392,15.228 -36.92,15.228Zm0.217,-11.358c10.912,0 19.349,-3.942 25.31,-11.828c5.961,-7.885 8.941,-19.014 8.941,-33.386c0,-13.939 -2.992,-24.838 -8.977,-32.7c-5.985,-7.861 -14.266,-11.792 -24.842,-11.792c-10.624,0 -18.916,3.943 -24.877,11.828c-5.961,7.886 -8.942,18.846 -8.942,32.881c0,13.986 2.957,24.982 8.87,32.988c5.913,8.006 14.085,12.009 24.517,12.009Z" style="fill:#fff;fill-rule:nonzero;"/><path d="M120.819,109.935l0,-107.069l59.634,0l0,11.358l-44.491,0l0,34.363l37.28,0l0,11.213l-37.28,0l0,38.777l47.591,0l0,11.358l-62.734,0Z" style="fill:#fff;fill-rule:nonzero;"/><path d="M200.859,109.935l0,-107.069l32.305,0c10.24,0 18.088,2.267 23.544,6.8c5.456,4.534 8.184,11.117 8.184,19.75c0,14.276 -7.187,24.404 -21.56,30.384l35.621,50.135l-18.604,0l-30.358,-45.287l-14.133,0l0,45.287l-14.999,0Zm14.999,-56.645l4.903,0c19.037,0 28.556,-7.5 28.556,-22.499c0,-11.045 -7.98,-16.567 -23.941,-16.567l-9.518,0l0,39.066Z" style="fill:#fff;fill-rule:nonzero;"/><rect x="291.14" y="61.754" width="64.033" height="10.707" style="fill:#fff;fill-rule:nonzero;"/><path d="M379.689,109.935l0,-107.069l29.06,0c12.884,0 22.138,2.182 27.762,6.547c5.625,4.365 8.437,11.539 8.437,21.522c0,11.382 -3.846,20.305 -11.538,26.768c-7.691,6.462 -18.363,9.694 -32.016,9.694l-6.706,0l0,42.538l-14.999,0Zm14.999,-54.041l6.129,0c8.99,0 15.936,-2.074 20.84,-6.222c4.903,-4.147 7.355,-10.007 7.355,-17.579c0,-6.415 -1.923,-10.996 -5.769,-13.745c-3.846,-2.75 -10.263,-4.124 -19.253,-4.124l-9.302,0l0,41.67Z" style="fill:#fff;fill-rule:nonzero;"/><path d="M492.395,111.743c-11.2,0 -20.142,-3.725 -26.824,-11.177c-6.682,-7.451 -10.023,-17.423 -10.023,-29.914c0,-12.636 3.353,-22.631 10.059,-29.986c6.706,-7.355 15.804,-11.033 27.293,-11.033c11.49,0 20.587,3.678 27.293,11.033c6.707,7.355 10.06,17.302 10.06,29.841c0,12.829 -3.365,22.909 -10.096,30.24c-6.73,7.331 -15.984,10.996 -27.762,10.996Zm0.217,-10.707c15.047,0 22.57,-10.176 22.57,-30.529c0,-20.111 -7.427,-30.167 -22.282,-30.167c-14.806,0 -22.209,10.104 -22.209,30.312c0,20.256 7.307,30.384 21.921,30.384Z" style="fill:#fff;fill-rule:nonzero;"/><path d="M552.462,109.935l0,-78.566l14.206,0l0,14.759c5.624,-10.997 13.796,-16.495 24.517,-16.495c1.442,0 2.956,0.121 4.542,0.362l0,13.311c-2.451,-0.82 -4.615,-1.23 -6.489,-1.23c-8.99,0 -16.513,5.354 -22.57,16.061l0,51.798l-14.206,0Z" style="fill:#fff;fill-rule:nonzero;"/><path d="M636.397,111.743c-7.211,0 -12.836,-2.074 -16.874,-6.221c-4.038,-4.148 -6.057,-9.911 -6.057,-17.29l0,-46.156l-9.807,0l0,-10.707l9.807,0l0,-14.251l14.206,-1.375l0,15.626l20.479,0l0,10.707l-20.479,0l0,43.551c0,10.273 4.422,15.409 13.268,15.409c1.875,0 4.158,-0.313 6.85,-0.94l0,9.839c-4.375,1.205 -8.172,1.808 -11.393,1.808Z" style="fill:#fff;fill-rule:nonzero;"/><path d="M708.506,99.951c-8.509,7.862 -16.706,11.792 -24.589,11.792c-6.49,0 -11.874,-2.037 -16.153,-6.113c-4.278,-4.075 -6.418,-9.224 -6.418,-15.445c0,-8.585 3.594,-15.18 10.781,-19.786c7.187,-4.606 17.486,-6.909 30.898,-6.909l3.39,0l0,-9.477c0,-9.115 -4.664,-13.673 -13.99,-13.673c-7.499,0 -15.599,2.315 -24.3,6.945l0,-11.792c9.566,-3.907 18.532,-5.86 26.896,-5.86c8.75,0 15.203,1.978 19.362,5.932c4.158,3.955 6.237,10.104 6.237,18.448l0,35.593c0,8.151 2.5,12.226 7.499,12.226c0.625,0 1.539,-0.096 2.74,-0.289l1.01,7.885c-3.221,1.544 -6.778,2.315 -10.672,2.315c-6.634,0 -10.865,-3.93 -12.691,-11.792Zm-2.091,-7.741l0,-20.328l-4.76,-0.145c-7.787,0 -14.085,1.483 -18.892,4.449c-4.807,2.966 -7.211,6.861 -7.211,11.684c0,3.424 1.202,6.318 3.605,8.681c2.404,2.363 5.336,3.545 8.798,3.545c5.913,0 12.066,-2.629 18.46,-7.886Z" style="fill:#fff;fill-rule:nonzero;"/><rect x="749.68" y="-4.296" width="14.205" height="114.231" style="fill:#fff;fill-rule:nonzero;"/></g><g><path d="M82.915,233.185l-55.02,-62.198l1.277,-0.986l0.098,61.508l-4.716,0l0,-71.463l0.295,0l55.02,62.69l-1.277,0.395l-0.099,-61.607l4.618,0l0,71.661l-0.196,0Z" style="fill:#fff;fill-rule:nonzero;"/><path d="M119.464,192.968l4.618,0l0,38.541l-4.618,0l0,-38.541Zm-0.983,-14.194c0,-0.92 0.361,-1.692 1.081,-2.316c0.721,-0.625 1.507,-0.937 2.358,-0.937c0.917,0 1.703,0.312 2.358,0.937c0.655,0.624 0.983,1.396 0.983,2.316c0,0.986 -0.328,1.791 -0.983,2.415c-0.655,0.624 -1.441,0.936 -2.358,0.936c-0.851,0 -1.637,-0.328 -2.358,-0.985c-0.72,-0.657 -1.081,-1.446 -1.081,-2.366Z" style="fill:#fff;fill-rule:nonzero;"/><path d="M174.779,232.298c-3.996,0 -7.533,-0.887 -10.611,-2.662c-3.079,-1.774 -5.486,-4.189 -7.222,-7.245c-1.736,-3.055 -2.603,-6.489 -2.603,-10.3c0,-3.746 0.917,-7.163 2.751,-10.251c1.834,-3.089 4.306,-5.553 7.417,-7.393c3.112,-1.84 6.567,-2.76 10.366,-2.76c4.585,0 8.433,1.347 11.544,4.041c3.112,2.694 5.355,6.21 6.73,10.547l-33.601,13.011l-1.376,-3.351l30.753,-12.026l-0.983,1.38c-1.113,-2.628 -2.8,-4.895 -5.06,-6.801c-2.259,-1.906 -5.027,-2.858 -8.302,-2.858c-2.947,0 -5.6,0.722 -7.958,2.168c-2.358,1.446 -4.241,3.384 -5.65,5.816c-1.408,2.431 -2.112,5.191 -2.112,8.28c0,2.891 0.671,5.585 2.014,8.082c1.343,2.498 3.226,4.502 5.65,6.013c2.423,1.512 5.207,2.267 8.351,2.267c2.096,0 4.11,-0.394 6.042,-1.182c1.933,-0.789 3.652,-1.808 5.158,-3.056l2.358,3.351c-1.834,1.446 -3.946,2.629 -6.337,3.549c-2.39,0.92 -4.83,1.38 -7.319,1.38Z" style="fill:#fff;fill-rule:nonzero;"/><path d="M238.15,232.298c-3.602,0 -6.877,-0.871 -9.825,-2.612c-2.947,-1.742 -5.289,-4.157 -7.025,-7.245c-1.736,-3.089 -2.604,-6.572 -2.604,-10.449c0,-4.14 0.885,-7.721 2.653,-10.744c1.769,-3.023 4.176,-5.356 7.222,-6.998c3.045,-1.643 6.402,-2.465 10.07,-2.465c3.668,0 7.156,0.953 10.464,2.859c3.308,1.906 5.715,4.403 7.221,7.491l-0.786,2.169l0,-47.708l4.618,0l0,74.913l-4.716,0l0,-11.828l0.983,2.168c-1.638,3.089 -4.094,5.602 -7.369,7.541c-3.275,1.938 -6.91,2.908 -10.906,2.908Zm1.179,-4.042c2.948,0 5.6,-0.64 7.958,-1.922c2.358,-1.281 4.258,-3.023 5.699,-5.224c1.441,-2.201 2.26,-4.682 2.456,-7.442l0,-4.929c-0.458,-2.497 -1.474,-4.731 -3.046,-6.702c-1.572,-1.972 -3.471,-3.532 -5.698,-4.682c-2.227,-1.15 -4.683,-1.725 -7.369,-1.725c-2.947,0 -5.633,0.69 -8.056,2.07c-2.424,1.38 -4.356,3.285 -5.797,5.717c-1.441,2.431 -2.162,5.257 -2.162,8.477c0,3.023 0.721,5.766 2.162,8.23c1.441,2.465 3.389,4.436 5.846,5.915c2.456,1.478 5.125,2.217 8.007,2.217Z" style="fill:#fff;fill-rule:nonzero;"/><path d="M310.855,232.298c-3.995,0 -7.532,-0.887 -10.611,-2.662c-3.078,-1.774 -5.485,-4.189 -7.221,-7.245c-1.736,-3.055 -2.604,-6.489 -2.604,-10.3c0,-3.746 0.917,-7.163 2.751,-10.251c1.834,-3.089 4.307,-5.553 7.418,-7.393c3.111,-1.84 6.566,-2.76 10.365,-2.76c4.585,0 8.434,1.347 11.545,4.041c3.111,2.694 5.354,6.21 6.73,10.547l-33.602,13.011l-1.375,-3.351l30.752,-12.026l-0.982,1.38c-1.114,-2.628 -2.8,-4.895 -5.06,-6.801c-2.26,-1.906 -5.027,-2.858 -8.302,-2.858c-2.948,0 -5.601,0.722 -7.959,2.168c-2.358,1.446 -4.241,3.384 -5.649,5.816c-1.408,2.431 -2.112,5.191 -2.112,8.28c0,2.891 0.671,5.585 2.014,8.082c1.343,2.498 3.226,4.502 5.649,6.013c2.424,1.512 5.207,2.267 8.351,2.267c2.096,0 4.111,-0.394 6.043,-1.182c1.932,-0.789 3.651,-1.808 5.158,-3.056l2.358,3.351c-1.834,1.446 -3.946,2.629 -6.337,3.549c-2.391,0.92 -4.831,1.38 -7.32,1.38Z" style="fill:#fff;fill-rule:nonzero;"/><path d="M362.535,192.968l0.491,11.829l-0.589,-1.479c0.851,-2.366 2.194,-4.403 4.028,-6.111c1.834,-1.709 3.881,-3.023 6.14,-3.943c2.26,-0.92 4.438,-1.38 6.534,-1.38l-0.196,4.534c-2.948,0 -5.617,0.657 -8.008,1.972c-2.391,1.314 -4.29,3.072 -5.698,5.273c-1.409,2.201 -2.113,4.682 -2.113,7.442l0,20.404l-4.617,0l0,-38.541l4.028,0Z" style="fill:#fff;fill-rule:nonzero;"/><path d="M417.653,232.298c-2.227,0 -4.552,-0.411 -6.976,-1.232c-2.423,-0.822 -4.388,-2.153 -5.895,-3.992l2.162,-3.056c1.31,1.38 2.866,2.481 4.667,3.302c1.801,0.821 3.717,1.232 5.747,1.232c1.507,0 2.932,-0.214 4.274,-0.641c1.343,-0.427 2.44,-1.166 3.292,-2.217c0.851,-1.052 1.277,-2.465 1.277,-4.239c0,-1.84 -0.508,-3.253 -1.523,-4.239c-1.015,-0.985 -2.292,-1.79 -3.832,-2.414c-1.539,-0.625 -3.16,-1.2 -4.863,-1.725c-2.817,-0.92 -5.125,-2.169 -6.927,-3.746c-1.801,-1.577 -2.702,-3.812 -2.702,-6.703c0,-2.103 0.508,-3.943 1.523,-5.52c1.016,-1.577 2.407,-2.809 4.176,-3.696c1.768,-0.887 3.766,-1.331 5.993,-1.331c2.031,0 4.045,0.329 6.043,0.986c1.997,0.657 3.815,1.774 5.452,3.351l-2.063,3.253c-1.048,-1.446 -2.44,-2.431 -4.175,-2.957c-1.736,-0.526 -3.259,-0.822 -4.569,-0.887c-1.114,0 -2.276,0.23 -3.488,0.69c-1.212,0.46 -2.227,1.133 -3.046,2.02c-0.818,0.888 -1.228,2.054 -1.228,3.5c0,1.511 0.426,2.743 1.277,3.696c0.852,0.953 1.949,1.725 3.292,2.316c1.343,0.592 2.734,1.15 4.175,1.676c1.9,0.592 3.685,1.298 5.355,2.119c1.67,0.822 3.046,1.906 4.127,3.253c1.08,1.347 1.621,3.138 1.621,5.372c0,2.235 -0.492,4.255 -1.474,6.062c-0.983,1.807 -2.44,3.22 -4.372,4.239c-1.932,1.018 -4.372,1.528 -7.32,1.528Z" style="fill:#fff;fill-rule:nonzero;"/><path d="M477.193,232.298c-3.668,0 -6.992,-0.838 -9.973,-2.514c-2.98,-1.676 -5.338,-4.025 -7.074,-7.048c-1.735,-3.022 -2.603,-6.538 -2.603,-10.547c0,-4.271 0.917,-7.935 2.751,-10.99c1.834,-3.056 4.323,-5.389 7.467,-6.999c3.144,-1.61 6.714,-2.415 10.709,-2.415c3.406,0 6.632,1.019 9.678,3.056c3.045,2.037 5.223,4.6 6.533,7.689l-0.687,1.379l0.589,-10.941l4.127,0l0,38.541l-4.618,0l0,-11.927l0.982,1.774c-0.458,1.315 -1.244,2.613 -2.358,3.894c-1.113,1.281 -2.472,2.464 -4.077,3.548c-1.605,1.085 -3.373,1.939 -5.306,2.563c-1.932,0.625 -3.979,0.937 -6.14,0.937Zm0.982,-3.943c2.882,0 5.486,-0.608 7.811,-1.824c2.325,-1.215 4.209,-2.907 5.65,-5.076c1.441,-2.169 2.259,-4.666 2.456,-7.491l0,-5.52c-0.524,-2.432 -1.556,-4.6 -3.095,-6.506c-1.539,-1.906 -3.422,-3.417 -5.649,-4.534c-2.227,-1.117 -4.651,-1.676 -7.271,-1.676c-2.882,0 -5.535,0.674 -7.958,2.021c-2.424,1.347 -4.356,3.236 -5.797,5.668c-1.441,2.431 -2.161,5.29 -2.161,8.575c0,3.023 0.72,5.767 2.161,8.231c1.441,2.464 3.39,4.436 5.846,5.914c2.456,1.479 5.125,2.218 8.007,2.218Z" style="fill:#fff;fill-rule:nonzero;"/><path d="M562.376,227.763c-1.769,1.446 -3.767,2.563 -5.994,3.352c-2.227,0.788 -4.552,1.183 -6.975,1.183c-3.93,0 -7.435,-0.871 -10.513,-2.612c-3.079,-1.742 -5.502,-4.124 -7.271,-7.147c-1.768,-3.023 -2.652,-6.473 -2.652,-10.35c0,-3.877 0.917,-7.327 2.751,-10.349c1.834,-3.023 4.274,-5.405 7.319,-7.147c3.046,-1.741 6.37,-2.612 9.973,-2.612c2.685,0 5.174,0.394 7.467,1.183c2.292,0.788 4.29,1.906 5.993,3.351l-2.456,3.155c-1.376,-1.118 -2.981,-2.038 -4.815,-2.76c-1.834,-0.723 -3.799,-1.085 -5.895,-1.085c-2.882,0 -5.518,0.723 -7.909,2.169c-2.39,1.446 -4.29,3.401 -5.698,5.865c-1.408,2.464 -2.113,5.208 -2.113,8.23c0,2.958 0.705,5.668 2.113,8.132c1.408,2.465 3.34,4.42 5.797,5.865c2.456,1.446 5.19,2.169 8.203,2.169c1.965,0 3.799,-0.312 5.502,-0.936c1.703,-0.625 3.243,-1.463 4.618,-2.514l2.555,2.858Z" style="fill:#fff;fill-rule:nonzero;"/><path d="M591.753,231.509l0,-74.913l4.519,0l0,46.623l-0.295,-1.675c1.31,-2.694 3.423,-4.978 6.337,-6.851c2.915,-1.873 6.272,-2.809 10.071,-2.809c3.603,0 6.517,1.068 8.744,3.203c2.227,2.136 3.374,4.913 3.439,8.33l0,28.092l-4.716,0l0,-26.811c-0.065,-2.497 -0.851,-4.567 -2.358,-6.21c-1.506,-1.643 -3.701,-2.497 -6.583,-2.563c-2.554,0 -4.945,0.657 -7.172,1.972c-2.227,1.314 -4.012,3.088 -5.355,5.322c-1.342,2.235 -2.014,4.765 -2.014,7.59l0,20.7l-4.617,0Z" style="fill:#fff;fill-rule:nonzero;"/><path d="M667.602,232.298c-2.227,0 -4.553,-0.411 -6.976,-1.232c-2.424,-0.822 -4.389,-2.153 -5.895,-3.992l2.161,-3.056c1.31,1.38 2.866,2.481 4.667,3.302c1.802,0.821 3.717,1.232 5.748,1.232c1.506,0 2.931,-0.214 4.274,-0.641c1.343,-0.427 2.44,-1.166 3.291,-2.217c0.852,-1.052 1.277,-2.465 1.277,-4.239c0,-1.84 -0.507,-3.253 -1.522,-4.239c-1.016,-0.985 -2.293,-1.79 -3.832,-2.414c-1.539,-0.625 -3.161,-1.2 -4.864,-1.725c-2.816,-0.92 -5.125,-2.169 -6.926,-3.746c-1.801,-1.577 -2.702,-3.812 -2.702,-6.703c0,-2.103 0.508,-3.943 1.523,-5.52c1.015,-1.577 2.407,-2.809 4.175,-3.696c1.769,-0.887 3.767,-1.331 5.994,-1.331c2.03,0 4.044,0.329 6.042,0.986c1.998,0.657 3.816,1.774 5.453,3.351l-2.063,3.253c-1.048,-1.446 -2.44,-2.431 -4.176,-2.957c-1.736,-0.526 -3.259,-0.822 -4.569,-0.887c-1.113,0 -2.276,0.23 -3.487,0.69c-1.212,0.46 -2.227,1.133 -3.046,2.02c-0.819,0.888 -1.228,2.054 -1.228,3.5c0,1.511 0.425,2.743 1.277,3.696c0.851,0.953 1.949,1.725 3.291,2.316c1.343,0.592 2.735,1.15 4.176,1.676c1.899,0.592 3.684,1.298 5.355,2.119c1.67,0.822 3.045,1.906 4.126,3.253c1.081,1.347 1.621,3.138 1.621,5.372c0,2.235 -0.491,4.255 -1.473,6.062c-0.983,1.807 -2.44,3.22 -4.373,4.239c-1.932,1.018 -4.372,1.528 -7.319,1.528Z" style="fill:#fff;fill-rule:nonzero;"/><path d="M727.927,232.298c-3.995,0 -7.532,-0.887 -10.611,-2.662c-3.078,-1.774 -5.485,-4.189 -7.221,-7.245c-1.736,-3.055 -2.604,-6.489 -2.604,-10.3c0,-3.746 0.917,-7.163 2.751,-10.251c1.834,-3.089 4.307,-5.553 7.418,-7.393c3.111,-1.84 6.567,-2.76 10.366,-2.76c4.585,0 8.433,1.347 11.544,4.041c3.111,2.694 5.355,6.21 6.73,10.547l-33.601,13.011l-1.376,-3.351l30.752,-12.026l-0.982,1.38c-1.114,-2.628 -2.8,-4.895 -5.06,-6.801c-2.26,-1.906 -5.027,-2.858 -8.302,-2.858c-2.948,0 -5.6,0.722 -7.958,2.168c-2.358,1.446 -4.242,3.384 -5.65,5.816c-1.408,2.431 -2.112,5.191 -2.112,8.28c0,2.891 0.671,5.585 2.014,8.082c1.343,2.498 3.226,4.502 5.649,6.013c2.424,1.512 5.208,2.267 8.352,2.267c2.096,0 4.11,-0.394 6.042,-1.182c1.932,-0.789 3.652,-1.808 5.158,-3.056l2.358,3.351c-1.834,1.446 -3.946,2.629 -6.337,3.549c-2.391,0.92 -4.831,1.38 -7.32,1.38Z" style="fill:#fff;fill-rule:nonzero;"/><path d="M779.607,192.968l0.491,12.124l-0.589,-2.365c1.113,-3.352 3.226,-5.997 6.337,-7.935c3.111,-1.939 6.566,-2.908 10.365,-2.908c3.603,0 6.518,1.068 8.745,3.203c2.227,2.136 3.373,4.913 3.438,8.33l0,28.092l-4.716,0l0,-26.811c-0.065,-2.497 -0.851,-4.567 -2.358,-6.21c-1.506,-1.643 -3.7,-2.497 -6.582,-2.563c-2.555,0 -4.946,0.625 -7.173,1.873c-2.227,1.249 -4.012,2.99 -5.354,5.224c-1.343,2.235 -2.015,4.83 -2.015,7.787l0,20.7l-4.617,0l0,-38.541l4.028,0Z" style="fill:#fff;fill-rule:nonzero;"/></g></g><g><path d="M846.886,31.931c1.735,0.807 3.086,1.86 4.052,3.163c0.972,1.303 1.46,2.81 1.46,4.519c0,3.352 -1.102,5.817 -3.294,7.392c-2.192,1.568 -4.936,2.356 -8.219,2.356l-10.973,0l0,-33.067l9.674,0c3.497,0 6.24,0.708 8.24,2.131c2,1.423 3.003,3.482 3.003,6.182c0,1.647 -0.343,3.091 -1.029,4.332c-0.691,1.245 -1.657,2.241 -2.914,2.992Zm-10.48,-2.111l3.944,0c1.195,0 2.119,-0.371 2.774,-1.106c0.66,-0.729 0.987,-1.636 0.987,-2.715c0,-1.11 -0.374,-1.955 -1.122,-2.539c-0.743,-0.583 -1.777,-0.875 -3.086,-0.875l-3.497,0l0,7.235Zm4.167,13.473c1.522,0 2.754,-0.302 3.694,-0.917c0.94,-0.615 1.413,-1.538 1.413,-2.763c0,-2.34 -1.854,-3.507 -5.554,-3.507l-3.72,0l0,7.187l4.167,0Z" style="fill:#f38c3e;fill-rule:nonzero;"/><path d="M882.266,16.294l0,6.291l-15.986,0l0,7.052l14.147,0l0,6.291l-14.147,0l0,7.141l16.615,0l0,6.292l-23.109,0l0,-33.067l22.48,0Z" style="fill:#f38c3e;fill-rule:nonzero;"/><path d="M910.477,16.294l0,6.291l-8.016,0l0,26.776l-6.489,0l0,-26.776l-7.705,0l0,-6.291l22.21,0Z" style="fill:#f38c3e;fill-rule:nonzero;"/><path d="M931.259,42.892l-10.926,0l-2.686,6.469l-6.406,0l14.869,-34.371l0.359,0l14.864,34.371l-7.523,0l-2.551,-6.469Zm-2.151,-5.483l-3.179,-8.043l-3.315,8.043l6.494,0Z" style="fill:#f38c3e;fill-rule:nonzero;"/><path d="M941.297,0.266l0.384,0l0.39,0.015l0.384,0.026l0.385,0.032l0.379,0.041l0.379,0.052l0.379,0.063l0.374,0.073l0.375,0.078l0.368,0.089l0.369,0.099l0.369,0.104l0.359,0.115l0.363,0.125l0.354,0.135l0.353,0.141l0.348,0.151l0.348,0.157l0.343,0.166l0.338,0.178l0.332,0.182l0.327,0.193l0.328,0.203l0.317,0.209l0.317,0.213l0.311,0.224l0.307,0.235l0.296,0.24l0.296,0.25l0.291,0.255l0.281,0.261l0.275,0.271l0.27,0.281l0.265,0.282l0.255,0.292l0.249,0.292l0.239,0.302l0.229,0.308l0.223,0.307l0.218,0.318l0.208,0.323l0.198,0.323l0.192,0.334l0.187,0.334l0.171,0.338l0.166,0.344l0.162,0.344l0.15,0.355l0.14,0.349l0.13,0.36l0.125,0.359l0.114,0.365l0.109,0.365l0.099,0.37l0.088,0.375l0.078,0.376l0.068,0.375l0.062,0.381l0.052,0.38l0.042,0.381l0.036,0.385l0.021,0.386l0.016,0.386l0.005,0.391l0,33.703l-0.016,0.39l-0.021,0.386l-0.036,0.386l-0.042,0.38l-0.051,0.381l-0.063,0.38l-0.067,0.376l-0.078,0.375l-0.089,0.37l-0.098,0.37l-0.109,0.37l-0.115,0.36l-0.124,0.365l-0.13,0.354l-0.141,0.355l-0.15,0.349l-0.161,0.349l-0.167,0.344l-0.171,0.339l-0.187,0.333l-0.192,0.329l-0.198,0.328l-0.208,0.318l-0.218,0.318l-0.223,0.313l-0.229,0.307l-0.239,0.297l-0.249,0.298l-0.255,0.291l-0.265,0.282l-0.27,0.276l-0.275,0.271l-0.281,0.266l-0.291,0.255l-0.296,0.251l-0.296,0.239l-0.306,0.23l-0.312,0.224l-0.317,0.219l-0.317,0.208l-0.327,0.198l-0.328,0.193l-0.332,0.188l-0.338,0.172l-0.343,0.167l-0.348,0.161l-0.348,0.151l-0.353,0.141l-0.354,0.13l-0.363,0.126l-0.359,0.114l-0.369,0.11l-0.368,0.099l-0.369,0.088l-0.374,0.078l-0.374,0.068l-0.38,0.063l-0.379,0.052l-0.379,0.042l-0.385,0.036l-0.384,0.021l-0.39,0.016l-111.566,0l-0.384,-0.006l-0.39,-0.015l-0.385,-0.021l-0.379,-0.037l-0.384,-0.041l-0.38,-0.052l-0.379,-0.063l-0.374,-0.068l-0.374,-0.078l-0.369,-0.089l-0.369,-0.099l-0.363,-0.109l-0.364,-0.115l-0.364,-0.125l-0.353,-0.13l-0.353,-0.141l-0.348,-0.151l-0.348,-0.162l-0.343,-0.166l-0.338,-0.172l-0.333,-0.188l-0.327,-0.193l-0.327,-0.198l-0.317,-0.208l-0.317,-0.219l-0.312,-0.224l-0.306,-0.23l-0.296,-0.24l-0.297,-0.25l-0.291,-0.255l-0.28,-0.266l-0.275,-0.271l-0.271,-0.276l-0.265,-0.282l-0.254,-0.292l-0.25,-0.297l-0.239,-0.297l-0.228,-0.307l-0.224,-0.313l-0.218,-0.318l-0.208,-0.318l-0.197,-0.328l-0.192,-0.329l-0.187,-0.333l-0.172,-0.339l-0.166,-0.344l-0.161,-0.349l-0.151,-0.35l-0.14,-0.354l-0.13,-0.355l-0.125,-0.364l-0.114,-0.36l-0.109,-0.37l-0.099,-0.37l-0.088,-0.37l-0.078,-0.376l-0.067,-0.375l-0.063,-0.38l-0.052,-0.381l-0.041,-0.38l-0.037,-0.386l-0.02,-0.386l-0.016,-0.391l0,-33.812l0.005,-0.401l0.016,-0.397l0.026,-0.396l0.031,-0.396l0.047,-0.391l0.052,-0.385l0.067,-0.386l0.073,-0.381l0.078,-0.375l0.093,-0.375l0.099,-0.37l0.109,-0.365l0.12,-0.365l0.124,-0.36l0.135,-0.354l0.141,-0.349l0.15,-0.344l0.161,-0.344l0.167,-0.334l0.176,-0.334l0.182,-0.328l0.187,-0.323l0.198,-0.318l0.207,-0.313l0.213,-0.307l0.219,-0.303l0.223,-0.297l0.234,-0.286l0.244,-0.287l0.244,-0.276l0.255,-0.277l0.26,-0.265l0.265,-0.261l0.27,-0.25l0.28,-0.25l0.281,-0.24l0.291,-0.235l0.296,-0.229l0.301,-0.219l0.307,-0.214l0.306,-0.203l0.317,-0.198l0.322,-0.193l0.328,-0.182l0.332,-0.172l0.338,-0.172l0.338,-0.157l0.348,-0.151l0.348,-0.146l0.353,-0.135l0.358,-0.125l0.359,-0.115l0.369,-0.11l0.369,-0.104l0.369,-0.088l0.379,-0.084l0.379,-0.073l0.385,-0.062l0.384,-0.053l0.39,-0.046l0.389,-0.037l0.395,-0.026l0.395,-0.01l0.4,-0.006l111.291,0l-0.01,0.006Zm-111.213,7.818l-0.26,0l-0.26,0.005l-0.192,0.011l-0.177,0.015l-0.161,0.021l-0.171,0.026l-0.244,0.042l-0.151,0.026l-0.203,0.047l-0.234,0.052l-0.098,0.031l-0.198,0.058l-0.182,0.057l-0.161,0.057l-0.228,0.089l-0.177,0.073l-0.166,0.073l-0.099,0.047l-0.208,0.109l-0.228,0.11l-0.031,0.021l-0.193,0.119l-0.207,0.126l-0.156,0.104l-0.146,0.099l-0.13,0.099l-0.181,0.135l-0.12,0.099l-0.156,0.131l-0.208,0.182l-0.181,0.188l-0.151,0.151l-0.213,0.235l-0.099,0.125l-0.213,0.255l-0.031,0.037l-0.234,0.338l-0.088,0.136l-0.156,0.255l-0.114,0.177l-0.021,0.042l-0.099,0.188l-0.093,0.187l-0.032,0.068l-0.077,0.193l-0.125,0.297l-0.078,0.203l-0.031,0.079l-0.063,0.208l-0.067,0.214l-0.021,0.078l-0.052,0.219l-0.047,0.208l-0.02,0.11l-0.032,0.229l-0.036,0.24l-0.026,0.245l-0.01,0.104l-0.006,0.115l-0.015,0.391l-0.01,0.266l0,33.145l0.01,0.24l0.015,0.385l0.006,0.099l0.01,0.099l0.042,0.376l0.005,0.083l0.047,0.235l0.031,0.224l0.021,0.078l0.052,0.235l0.025,0.099l0.063,0.198l0.109,0.338l0.031,0.099l0.031,0.079l0.13,0.333l0.073,0.167l0.031,0.073l0.114,0.224l0.094,0.198l0.031,0.052l0.114,0.188l0.182,0.297l0.094,0.151l0.026,0.047l0.135,0.177l0.13,0.178l0.072,0.088l0.198,0.23l0.114,0.135l0.088,0.094l0.198,0.203l0.192,0.193l0.218,0.182l0.161,0.141l0.068,0.058l0.151,0.109l0.218,0.156l0.213,0.152l0.098,0.062l0.151,0.094l0.104,0.062l0.229,0.12l0.213,0.115l0.109,0.052l0.234,0.11l0.161,0.067l0.114,0.047l0.229,0.084l0.181,0.062l0.167,0.052l0.155,0.047l0.198,0.052l0.203,0.052l0.176,0.032l0.182,0.036l0.208,0.031l0.223,0.037l0.099,0.01l0.244,0.016l0.239,0.021l111.868,0l0.462,-0.037l0.088,-0.01l0.478,-0.073l0.296,-0.057l0.468,-0.12l0.13,-0.037l0.161,-0.052l0.234,-0.078l0.135,-0.047l0.151,-0.068l0.171,-0.067l0.39,-0.193l0.166,-0.084l0.156,-0.083l0.161,-0.099l0.223,-0.136l0.109,-0.067l0.296,-0.209l0.349,-0.276l0.098,-0.084l0.135,-0.119l0.208,-0.193l0.135,-0.131l0.063,-0.062l0.27,-0.302l0.254,-0.318l0.265,-0.355l0.099,-0.151l0.104,-0.151l0.052,-0.084l0.104,-0.187l0.15,-0.271l0.047,-0.084l0.192,-0.422l0.078,-0.172l0.032,-0.083l0.072,-0.204l0.083,-0.234l0.021,-0.073l0.114,-0.427l0.104,-0.454l0.016,-0.083l0.073,-0.459l0.01,-0.094l0.036,-0.485l0,-34l-0.02,-0.239l-0.016,-0.235l-0.01,-0.099l-0.037,-0.24l-0.036,-0.224l-0.016,-0.083l-0.046,-0.219l-0.058,-0.235l-0.057,-0.213l-0.057,-0.209l-0.031,-0.099l-0.073,-0.214l-0.062,-0.177l-0.031,-0.073l-0.104,-0.229l-0.14,-0.323l-0.021,-0.047l-0.047,-0.073l-0.182,-0.339l-0.088,-0.156l-0.177,-0.266l-0.099,-0.157l-0.109,-0.146l-0.135,-0.177l-0.109,-0.141l-0.145,-0.172l-0.151,-0.172l-0.119,-0.135l-0.063,-0.063l-0.135,-0.13l-0.166,-0.156l-0.135,-0.115l-0.182,-0.156l-0.171,-0.136l-0.136,-0.104l-0.15,-0.11l-0.099,-0.067l-0.156,-0.099l-0.223,-0.136l-0.218,-0.125l-0.156,-0.089l-0.109,-0.057l-0.161,-0.078l-0.167,-0.078l-0.233,-0.099l-0.219,-0.089l-0.067,-0.026l-0.172,-0.057l-0.223,-0.073l-0.197,-0.058l-0.167,-0.041l-0.234,-0.058l-0.228,-0.052l-0.068,-0.01l-0.145,-0.026l-0.26,-0.032l-0.229,-0.026l-0.155,-0.015l-0.172,-0.011l-0.234,-0.005l-0.254,-0.005l-111.14,0l0,0.005Z" style="fill:#f38c3e;"/></g></g></svg>
